<svg xmlns="http://www.w3.org/2000/svg" viewBox="0 0 179.81 60.73"><title>LJC logo</title><g id="Layer_2" data-name="Layer 2"><g id="Layer_1-2" data-name="Layer 1"><path d="M54.92,16.94a.71.71,0,0,1,.12-.41.92.92,0,0,1,.29-.3,1.34,1.34,0,0,1,.4-.19,1.67,1.67,0,0,1,.44-.06.24.24,0,0,1,.18.06l.12.13a.8.8,0,0,0,.13.13.43.43,0,0,0,.24.06l.17,0,.11,0a.27.27,0,0,0,.24-.14.44.44,0,0,1,.21-.19l.15-.08.16-.06c.08-.05.12-.1.12-.16a.44.44,0,0,1,.07-.21l0-.08.08-.13s0-.09.07-.13l0-.08c0-.06.08-.13.13-.24s.11-.2.16-.31l.16-.29a.76.76,0,0,1,.09-.17.65.65,0,0,1,0-.18.77.77,0,0,0,0-.19.79.79,0,0,1,0-.12.62.62,0,0,0,0-.11,1.36,1.36,0,0,0,.09-.18l.09-.17a.51.51,0,0,1,0-.1l0-.15a.4.4,0,0,1,0-.15.84.84,0,0,0,0-.1l0-.1.09-.2.12-.21.1-.16.57-1.11a8.37,8.37,0,0,0,.51-1.1.94.94,0,0,1,0-.1l.06-.17.06-.17a.41.41,0,0,1,0-.1l0-.06,0,0L61,9l0-.08.09-.14.09-.13a.27.27,0,0,0,0-.08.18.18,0,0,1,0-.08l0-.09a.49.49,0,0,1,0-.11l0-.08a.35.35,0,0,1,0-.06L61.48,8l.19-.24.18-.24A.77.77,0,0,0,62,7.4a.35.35,0,0,0,0-.12c0-.06,0-.11.06-.14a.26.26,0,0,1,0-.07l0-.14a.51.51,0,0,1,0-.13.22.22,0,0,1,0-.08,3.2,3.2,0,0,1,.4-.86A4.22,4.22,0,0,0,63,5a.45.45,0,0,1,0-.11l.06-.18.06-.19a.89.89,0,0,0,0-.11c0-.09.07-.18.1-.26A.72.72,0,0,1,63.38,4l.14-.22.17-.26a3.28,3.28,0,0,0,.15-.36.56.56,0,0,1,.26-.3.73.73,0,0,0,.08-.33,1.24,1.24,0,0,0-.08-.37l-.25-.24-.25-.24a.7.7,0,0,0-.2-.12l-.31-.11-.3-.1a.53.53,0,0,1-.2-.1.46.46,0,0,1-.05-.1.44.44,0,0,1,0-.09.64.64,0,0,1,.33-.64A.89.89,0,0,1,63.15.3l.31,0,.31,0,.19,0a.35.35,0,0,1,.18,0,.29.29,0,0,0,.19.06h0l.08,0,.14,0,.13-.05.08,0,.07,0a.16.16,0,0,1,.09,0l.09,0,.09,0,.13,0,.13,0,.07,0a0,0,0,0,0,0,0h.16a.09.09,0,0,0,.08,0h.69l.33,0,.17,0,.1,0a.47.47,0,0,0,.15-.06l.15-.06a.27.27,0,0,1,.1,0h.77l.11,0,.19,0,.18,0h.72a1.36,1.36,0,0,1,.29.06.78.78,0,0,1,.22.12A.26.26,0,0,1,70,.4a.72.72,0,0,1-.07.33,1,1,0,0,1-.2.3,1.27,1.27,0,0,1-.28.23.75.75,0,0,1-.32.1l-.29,0-.43,0-.44,0-.28,0a.42.42,0,0,0-.21.12.35.35,0,0,0-.08.16.87.87,0,0,0,0,.19.62.62,0,0,1-.1.2l-.07.1L67,2.38l-.14.16s-.07.09-.09.09a1.12,1.12,0,0,0-.15.31,3.69,3.69,0,0,0-.1.39c0,.13-.06.26-.08.4a3.15,3.15,0,0,1-.09.36.66.66,0,0,1-.11.24,1.56,1.56,0,0,1-.16.2c0,.07-.11.13-.17.2a.74.74,0,0,0-.13.21.61.61,0,0,0-.11.17.57.57,0,0,1-.09.17,1.65,1.65,0,0,1-.21.42,1.6,1.6,0,0,0-.2.42s0,.08,0,.17,0,.15,0,.18a.27.27,0,0,1,0,.08.35.35,0,0,1-.06.09,5.48,5.48,0,0,0-.28.53,5.62,5.62,0,0,0-.19.53c-.06.18-.12.37-.17.55a5.14,5.14,0,0,1-.2.59l-.05.1c0,.05,0,.1-.08.16s0,.11-.08.16l0,.11-.11.15a1,1,0,0,0-.12.19,1.85,1.85,0,0,0-.24.42c-.05.14-.12.28-.19.43a3.51,3.51,0,0,0-.36.65,5.32,5.32,0,0,0-.25.71.28.28,0,0,1,0,.06.18.18,0,0,1-.06.08s0,0,0,0a.22.22,0,0,0-.05.08l0,.09a.13.13,0,0,0,0,.05l0,.09,0,.13a.59.59,0,0,1,0,.13c0,.05,0,.07,0,.08l0,.08c0,.05,0,.08-.05.09s0,0,0,.05l-.09.08-.09.07,0,0,0,.13a.39.39,0,0,1,0,.13.52.52,0,0,0-.09.22l-.08.2a.2.2,0,0,0,0,.09.19.19,0,0,0,0,.09s0,0-.08.07-.07.08-.09.08a.65.65,0,0,1,0,.18,1.06,1.06,0,0,0-.05.19s0,.06-.08.12a.38.38,0,0,0-.09.11l-.05.1a.21.21,0,0,0,0,.09v.1c0,.05,0,.1,0,.15a.77.77,0,0,0,0,.15l0,.09a.69.69,0,0,1,0,.17.63.63,0,0,0,0,.2.59.59,0,0,0,.21.38.61.61,0,0,0,.42.18,1.36,1.36,0,0,0,.3,0,.86.86,0,0,1,.27-.05h.15a.35.35,0,0,0,.18.05l.33.06.32,0h.23a1.64,1.64,0,0,0,.45-.05l.44-.12c.57-.1,1.14-.18,1.71-.23s1.14-.11,1.7-.18l1-.12a2.58,2.58,0,0,0,1-.31l.08-.08a1.59,1.59,0,0,0,.13-.13l.13-.13.08-.08.23-.17.33-.26.33-.27.22-.16a1.87,1.87,0,0,0,.25-.41l.24-.45A1.38,1.38,0,0,1,72,13a.72.72,0,0,1,.47-.15h.17l.11.09.15.13.11.14.06.07a1.38,1.38,0,0,1,0,.14c0,.08,0,.13,0,.17s0,.13,0,.22,0,.15,0,.17a1.93,1.93,0,0,0-.06.2l-.11.34c0,.13-.08.25-.11.36a1.93,1.93,0,0,1-.06.2v.25a.34.34,0,0,1,0,.13,1,1,0,0,0-.05.12.35.35,0,0,1-.06.14l-.11.21c0,.08-.07.15-.11.22l-.06.13s0,.06,0,.12l-.06.21a1.29,1.29,0,0,1,0,.21.31.31,0,0,1,0,.12.09.09,0,0,1,0,.06L72,17a5.11,5.11,0,0,1-.77.32,4.74,4.74,0,0,1-.83.2h-.55l-.18,0-.18,0-.12,0-4.68,0H64l-.53,0h-.9l-.18,0-.3,0-.28,0h-.36l-.16,0-.15,0-.09,0h-2l-.32.12-.34.13-.38,0-.56.05-.57.05-.38,0h-.25a.17.17,0,0,1-.08,0l-.13-.06a.42.42,0,0,0-.14-.06l-.07,0-.11,0-.19,0-.19,0-.11,0a.21.21,0,0,1-.12-.1,1.23,1.23,0,0,1-.1-.2,1.69,1.69,0,0,1-.08-.24A.81.81,0,0,1,54.92,16.94Z"/><path d="M74.12,16.63l.07-.2.06-.16a.74.74,0,0,0,0-.12s.06-.13.1-.24l.14-.33q.06-.16.12-.3l.07-.17,0-.06.08-.13.08-.13a.54.54,0,0,1,.06-.11c.2-.31.39-.62.56-.93s.35-.62.54-.93a.41.41,0,0,1,.07-.12l.1-.13a4.39,4.39,0,0,0,.26-.4l.17-.35.15-.36.18-.4a3,3,0,0,1,.15-.26l.14-.21a.94.94,0,0,0,.1-.23.85.85,0,0,0,0-.29V9.8a.31.31,0,0,0-.17-.1h-.17l-.46,0-.47.09a.31.31,0,0,1-.25-.31A1.45,1.45,0,0,1,76,9a1.05,1.05,0,0,1,.24-.43l.07-.05.12-.1.14-.1a.45.45,0,0,0,.1-.09l.26-.17.4-.27.41-.29.29-.2A4.47,4.47,0,0,1,78.72,7a2,2,0,0,1,.74-.14,1.73,1.73,0,0,1,.36,0A.42.42,0,0,1,80,7a.64.64,0,0,1,.14.2l.13.32s0,0,0,.06a.08.08,0,0,0,0,0l.06.15v.17a1.27,1.27,0,0,1-.07.44,3.39,3.39,0,0,1-.18.39c-.08.12-.15.25-.23.38a1.84,1.84,0,0,0-.19.4.48.48,0,0,1,0,.12.41.41,0,0,0-.05.16,2.46,2.46,0,0,1-.25.57l-.33.57a0,0,0,0,1,0,0h0a.16.16,0,0,1,0,.08l0,.08a7.26,7.26,0,0,1-.51,1.23,12,12,0,0,1-.66,1.16l0,0,0,0a3.25,3.25,0,0,0-.33.57,1.62,1.62,0,0,0-.13.7l0,.1.06.13a.09.09,0,0,0,0,.06s0,0,.06,0h1.16s.07,0,.11.09l.09.15v.35l-.18.19-.25.23a.38.38,0,0,1-.09.08l-.12.1L78,16.5a.3.3,0,0,0-.08.07l-.08,0-.09,0a5.2,5.2,0,0,0-.52.27l-.52.31a4.34,4.34,0,0,1-.54.25,1.58,1.58,0,0,1-.56.1l-.41,0a1.89,1.89,0,0,1-.41-.1,1.58,1.58,0,0,1-.36-.2.91.91,0,0,1-.24-.35.26.26,0,0,1-.06-.15ZM78.73,1.25V1.16L78.8,1a1.74,1.74,0,0,1,.11-.18L79,.69A.45.45,0,0,1,79.08.6l.07-.08L79.27.4l.14-.13.1-.1A.51.51,0,0,1,79.66.1a3.27,3.27,0,0,1,.59,0h.52A.4.4,0,0,1,81,.15l.19.17a1.12,1.12,0,0,1,.14.15l.2.25a2.25,2.25,0,0,1,.21.24,1,1,0,0,0,.13.14v.15a2.35,2.35,0,0,1-.06.51,2.27,2.27,0,0,1-.17.5,1.6,1.6,0,0,1-.3.42,1,1,0,0,1-.41.27h-1a.81.81,0,0,1-.49-.19,1.57,1.57,0,0,1-.38-.43,2.27,2.27,0,0,1-.25-.55A2.27,2.27,0,0,1,78.73,1.25Z"/><path d="M84.36,14.51a1,1,0,0,1,0-.16c0-.07,0-.14,0-.2s0-.13,0-.18a.62.62,0,0,0,0-.09.68.68,0,0,1,0-.22.88.88,0,0,1,0-.15s0-.09.08-.14a.68.68,0,0,0,.08-.19s0,0,0,0a.52.52,0,0,1,0-.11.36.36,0,0,0,0-.11l0-.06a7.63,7.63,0,0,1,.41-1.07c.16-.34.31-.69.46-1a1.56,1.56,0,0,1,.2-.38c.08-.13.17-.26.25-.4a3.84,3.84,0,0,0,.21-.4,1,1,0,0,0,.1-.41.72.72,0,0,0-.08-.32,1.21,1.21,0,0,0-.21-.28,1,1,0,0,0-.28-.2.74.74,0,0,0-.32-.07h-.22a1.19,1.19,0,0,0-.58.32,1.29,1.29,0,0,0-.28.48,3.29,3.29,0,0,0-.14.54,2.35,2.35,0,0,1-.15.51,1,1,0,0,1-.32.38,1.26,1.26,0,0,1-.65.14,1.31,1.31,0,0,1-.52-.09.72.72,0,0,1-.31-.26,1.11,1.11,0,0,1-.15-.4,2.82,2.82,0,0,1,0-.52,2.32,2.32,0,0,1,.14-.82,2.79,2.79,0,0,1,.36-.71.76.76,0,0,1,.24-.23l.28-.19.15-.16L83.54,7l.28-.27L84,6.58a.43.43,0,0,1,.3-.16.87.87,0,0,0,.35-.13l.1-.06.19-.1.19-.1L85.24,6l.13-.06.17-.07.19-.1h2.06l.23.1.19.07.16.06a.71.71,0,0,1,.34.44,2.08,2.08,0,0,1,.1.57,1.76,1.76,0,0,1-.1.5,1.36,1.36,0,0,1-.25.45s0,0,0,.08l-.11.11-.11.11-.06.06L88,8.41c0,.09-.09.17-.13.27L87.78,9l-.08.16-.09.09-.1.08a1,1,0,0,0-.19.5,1.8,1.8,0,0,1-.13.52l-.06.11a1.74,1.74,0,0,1-.11.18c0,.07-.07.13-.1.19l-.06.13a.35.35,0,0,0-.06.09s0,.06,0,.06a.26.26,0,0,1,0,.07l0,.14c0,.05,0,.09,0,.14a.22.22,0,0,1,0,.08.15.15,0,0,1,0,.06l-.08.1-.08.11s0,.06,0,.07v.59a.84.84,0,0,1,0,.18.91.91,0,0,1-.06.16s0,.09,0,.2a3.49,3.49,0,0,0,0,.35l0,.37a1.53,1.53,0,0,0,0,.27v.24a.49.49,0,0,0,.21.39,2.05,2.05,0,0,0,.51.28,3.29,3.29,0,0,0,.6.15,2.43,2.43,0,0,0,.48.05h.11l.12-.07.31-.26.46-.39.47-.38.3-.26a.83.83,0,0,0,.23-.27c0-.11.1-.21.14-.31l.12-.31a1.25,1.25,0,0,1,.19-.3l.08-.07a1.59,1.59,0,0,0,.13-.13l.13-.14.09-.08.13-.2.21-.31.2-.3.13-.21V11a1.43,1.43,0,0,0-.07-.43,1.37,1.37,0,0,1-.1-.41V9.6a.52.52,0,0,0-.1-.27l-.18-.25A1.78,1.78,0,0,1,91,8.81a.65.65,0,0,1-.08-.31,1.52,1.52,0,0,1,0-.31c0-.14,0-.29.09-.47s.08-.35.13-.54.11-.35.16-.51a2.81,2.81,0,0,1,.17-.38c.06-.09.11-.14.16-.14h.22l.24,0,.22,0h.13l.24,0,.27.08.25.12a.45.45,0,0,1,.18.18s0,.07,0,.13,0,.14.07.22,0,.17.08.25a.82.82,0,0,1,0,.18v.33l0,.1c0,.05,0,.1,0,.16a.77.77,0,0,0,.07.16l0,.1v.14s0,.05,0,.1l0,.14a.93.93,0,0,0,0,.13.24.24,0,0,1,0,.07,1.22,1.22,0,0,0,0,.21c0,.11,0,.23-.07.35s0,.24-.06.35,0,.17,0,.2a.53.53,0,0,1,0,.13c0,.07,0,.11,0,.12-.18.41-.37.82-.57,1.22s-.39.79-.62,1.18l0,.07a.27.27,0,0,0,0,.08s0,.05,0,.13a.53.53,0,0,0,0,.14l-.08.06a1.35,1.35,0,0,1-.11.09l-.11.11-.07.08-.11.18-.18.31-.19.32a1.65,1.65,0,0,1-.11.19,1,1,0,0,1-.18.17l-.18.19s0,0,0,.13,0,.11,0,.12a.27.27,0,0,1,0,.1.25.25,0,0,0,0,.07l-.08.08-.13.13-.14.13s-.07.07-.07.09,0,0,0,.08,0,.05,0,.07a3.21,3.21,0,0,1-.29.39c-.12.14-.25.29-.4.44A5.76,5.76,0,0,1,89,17a3.21,3.21,0,0,1-.39.29.59.59,0,0,1-.18,0l-.18,0-.13.07-.24.09-.25.08-.15,0h-.19l-.14,0h-.11l-.25,0h-.24a.48.48,0,0,0-.12-.1.32.32,0,0,0-.13-.07l-.07,0-.14,0-.14,0-.08,0-.12-.12-.21-.22-.24-.25-.17-.2a2.67,2.67,0,0,1-.6-.91A3.1,3.1,0,0,1,84.36,14.51Z"/><path d="M93.75,16.63l.07-.2.06-.16a.74.74,0,0,0,0-.12S94,16,94,15.91l.13-.33a3.11,3.11,0,0,0,.12-.3l.07-.17,0-.06.08-.13.08-.13a.54.54,0,0,1,.06-.11c.2-.31.39-.62.56-.93s.35-.62.54-.93l.07-.12.1-.13a4.39,4.39,0,0,0,.26-.4,3.7,3.7,0,0,0,.17-.35c0-.12.1-.23.15-.36l.18-.4a3,3,0,0,1,.15-.26l.14-.21a.94.94,0,0,0,.1-.23.85.85,0,0,0,0-.29V9.8a.32.32,0,0,0-.16-.1h-.18l-.46,0-.47.09a.31.31,0,0,1-.25-.31A1.45,1.45,0,0,1,95.63,9a1.18,1.18,0,0,1,.24-.43l.07-.05.12-.1.14-.1a.45.45,0,0,0,.1-.09l.26-.17L97,7.8l.41-.29.29-.2A4.47,4.47,0,0,1,98.35,7a2,2,0,0,1,.74-.14,1.73,1.73,0,0,1,.36,0,.42.42,0,0,1,.21.11.51.51,0,0,1,.14.2l.13.32a.13.13,0,0,1,0,.06.08.08,0,0,0,0,0,1.41,1.41,0,0,1,.06.15v.17a1.27,1.27,0,0,1-.07.44,3.39,3.39,0,0,1-.18.39c-.08.12-.15.25-.23.38a1.84,1.84,0,0,0-.19.4.48.48,0,0,1,0,.12.37.37,0,0,0,0,.16,2.48,2.48,0,0,1-.26.57l-.33.57v0h0a.16.16,0,0,1,0,.08l-.05.08a8.13,8.13,0,0,1-.5,1.23c-.21.4-.43.79-.67,1.16l0,0,0,0a3.25,3.25,0,0,0-.33.57,1.62,1.62,0,0,0-.13.7l0,.1.07.13a.09.09,0,0,0,0,.06s0,0,0,0h1.16s.07,0,.11.09a.65.65,0,0,1,.09.15v.35l-.18.19-.25.23a.29.29,0,0,1-.08.08l-.13.1-.13.11s-.07.05-.07.07l-.09,0-.09,0a5.2,5.2,0,0,0-.52.27l-.52.31a4.34,4.34,0,0,1-.54.25,1.58,1.58,0,0,1-.56.1l-.41,0a1.89,1.89,0,0,1-.41-.1,1.58,1.58,0,0,1-.36-.2.91.91,0,0,1-.24-.35.36.36,0,0,1-.06-.15ZM98.36,1.25V1.16A.54.54,0,0,0,98.43,1l.11-.18.1-.17A.45.45,0,0,1,98.71.6l.07-.08L98.9.4,99,.27a.93.93,0,0,0,.1-.1A.49.49,0,0,1,99.3.1a3,3,0,0,1,.58,0h.52a.38.38,0,0,1,.24.09l.19.17a1.12,1.12,0,0,1,.14.15l.21.25.2.24a1,1,0,0,0,.13.14v.15a2.35,2.35,0,0,1-.06.51,1.88,1.88,0,0,1-.46.92,1.22,1.22,0,0,1-.41.27h-1a.83.83,0,0,1-.49-.19,1.75,1.75,0,0,1-.38-.43,2.27,2.27,0,0,1-.25-.55A2.27,2.27,0,0,1,98.36,1.25Z"/><path d="M106.22,16.31v-.24s0-.08,0-.11a1.2,1.2,0,0,1,.08-.15l.14-.21.24-.38.24-.38a1.62,1.62,0,0,0,.14-.22l.22-.35.24-.4c.08-.14.16-.27.22-.4a2.93,2.93,0,0,0,.16-.39.23.23,0,0,0,0-.1,1.48,1.48,0,0,0,0-.19,1.37,1.37,0,0,0,0-.19.58.58,0,0,0,0-.1,1.42,1.42,0,0,1,.17-.35,3.55,3.55,0,0,1,.23-.31l.23-.29a1.26,1.26,0,0,0,.21-.32.31.31,0,0,0,.06-.14.36.36,0,0,1,0-.13.91.91,0,0,1,.1-.18,2.54,2.54,0,0,0,.14-.25,3,3,0,0,0,.38-.76,2.47,2.47,0,0,0,.14-.84.39.39,0,0,0-.14-.32.56.56,0,0,0-.32-.11h-.16a.37.37,0,0,0-.14.07l-.14.15-.19.18-.18.17c0,.05-.08.09-.1.09a.7.7,0,0,0,0,.13c0,.07-.07.14-.1.22l-.11.22-.08.13s0,0-.06.08l-.09.08-.09,0-.14,0-.13.05-.07,0-.1.1-.15.16-.16.17-.09.11-.13.06-.15.09,0,.06,0,0-.09.16-.13.26-.14.27a1.28,1.28,0,0,0-.07.16l-.07.09-.14.14-.13.13-.08.06a.18.18,0,0,1,0,.08.19.19,0,0,0,0,.11.9.9,0,0,0-.1.19l-.1.24,0,.07a.69.69,0,0,0-.11.13l-.12.13,0,.08c-.23.4-.44.8-.64,1.22s-.41.83-.63,1.25a1.9,1.9,0,0,1-.26.37,1.83,1.83,0,0,0-.26.38,5.34,5.34,0,0,1-.56.41,1.23,1.23,0,0,1-.69.19.7.7,0,0,1-.36-.12,2.89,2.89,0,0,1-.34-.22s0-.11,0-.22,0-.22,0-.33l0-.33c0-.11,0-.18,0-.22v-.11a1.13,1.13,0,0,1,.13-.51,4.85,4.85,0,0,1,.3-.54c.12-.18.24-.36.36-.52a4.14,4.14,0,0,0,.31-.46l.07-.11.11-.22a2,2,0,0,1,.11-.21c0-.07.06-.1.08-.11s0,0,0,0l.07-.08.08-.09s0-.05,0-.06l0-.11,0-.21a1.83,1.83,0,0,0,0-.21l0-.12a2.93,2.93,0,0,1,.26-.79,6.62,6.62,0,0,0,.32-.74.84.84,0,0,1,0-.1.89.89,0,0,1,0-.14l0-.13a.21.21,0,0,0,0-.06s0-.12.08-.23a.65.65,0,0,1,.09-.19.09.09,0,0,0,0-.06l-.05,0s0,0-.07,0h0s0,0,0,0l-1.36,1.36h0s-.06,0-.12-.09a1.45,1.45,0,0,1-.19-.23l-.16-.25a.36.36,0,0,1-.08-.15V10a.49.49,0,0,1,0-.12,1.42,1.42,0,0,1,0-.16l.06-.14a.67.67,0,0,1,0-.07,1.7,1.7,0,0,0,.11-.23l.19-.39.18-.38.11-.21c.08-.17.14-.31.19-.44a1.61,1.61,0,0,1,.24-.41.07.07,0,0,1,0,0l0,0,.22-.21.32-.27.29-.25.18-.16a6.17,6.17,0,0,1,.6-.39,1.35,1.35,0,0,1,.71-.19l.43,0,.47.07,0,0,0,0,.1.15.12.16a.85.85,0,0,0,.09.14l0,.08V8a.72.72,0,0,0-.16.27,2.41,2.41,0,0,0,0,.31v.07a1.41,1.41,0,0,0,0,.18.13.13,0,0,0,.14.1.44.44,0,0,0,.29-.11,2.57,2.57,0,0,0,.21-.24l.17-.28a.92.92,0,0,1,.2-.23.16.16,0,0,0,.09,0L107.8,8l.13-.07.07,0,.14-.15.24-.25.24-.24.14-.15a.64.64,0,0,1,.36-.12l.34,0s0,0,.09-.07l.16-.11.16-.11.1-.08a1.23,1.23,0,0,1,.43-.11,3,3,0,0,0,.41,0,2.4,2.4,0,0,0,.38-.12,1,1,0,0,1,.38-.08.63.63,0,0,1,.46.19,4.4,4.4,0,0,0,.39.35.5.5,0,0,1,.11.18,2.29,2.29,0,0,1,.08.28c0,.11,0,.21,0,.31s0,.18,0,.25a1.44,1.44,0,0,1-.06.4c0,.13-.08.26-.13.39s-.1.25-.16.38l-.14.35a.37.37,0,0,0,0,.11l0,.08-.09.07-.13.13-.13.14-.08.08,0,.06,0,.05s0,0,0,0a.51.51,0,0,1,0,.14.4.4,0,0,0,0,.13,2.16,2.16,0,0,0-.09.2l-.1.24-.1.21a.35.35,0,0,0,0,.1l-.08.11-.14.16-.14.16a.76.76,0,0,0-.07.09.44.44,0,0,0-.06.17,1.05,1.05,0,0,0,0,.18l-.13.29-.13.24c0,.08-.09.16-.13.24a2.09,2.09,0,0,0-.11.3c0,.12-.06.21-.08.29a2.07,2.07,0,0,0,0,.22,1.64,1.64,0,0,0,0,.22c0,.08,0,.18,0,.29a1.91,1.91,0,0,0,.43,0,2,2,0,0,1,.43-.05h.39a1.33,1.33,0,0,1,.16.17.36.36,0,0,1,.09.24v0a3.69,3.69,0,0,0-.19.48,1.9,1.9,0,0,1-.23.45.16.16,0,0,1-.1.08l-.12,0-.12,0a.28.28,0,0,0-.09.07.88.88,0,0,1,0,.1,1.3,1.3,0,0,1-.08.17c0,.07-.05.12-.07.18a.45.45,0,0,0,0,.09.75.75,0,0,1-.22.19l-.41.26-.44.23-.28.16c-.26.14-.52.26-.76.37a2,2,0,0,1-.81.16H107l-.35-.23a.76.76,0,0,1-.24-.18.51.51,0,0,1-.15-.26A1.61,1.61,0,0,1,106.22,16.31Z"/><path d="M110.92,20.46V20.4a1.52,1.52,0,0,0,0-.19,2.11,2.11,0,0,0,0-.26q0-.14,0-.24a1.14,1.14,0,0,0,0-.15c0-.13,0-.28.07-.44a.78.78,0,0,1,.19-.41l.19-.19.29-.28L112,18l.18-.17.08-.06.17-.09.16-.07.09,0,.09-.09.08-.06a.62.62,0,0,1,.25-.11h.77l.08,0,.11-.06.09-.05.15-.11.16-.11.09-.06a.43.43,0,0,0,.14,0l.13,0v-.14a.29.29,0,0,0-.08-.18l-.2-.15-.24-.15a.66.66,0,0,1-.17-.16,2,2,0,0,1-.27-.55,2.25,2.25,0,0,1-.08-.61v-.38a.74.74,0,0,1,.08-.15,1.67,1.67,0,0,1,.12-.19l.1-.14.14-.19.12-.17.07-.09.14-.08.25-.14.26-.13.19-.08a.28.28,0,0,0,.08-.12s0-.09,0-.15V12.5s0-.05-.08-.12a2.21,2.21,0,0,0-.11-.21l-.11-.22-.07-.12a4.75,4.75,0,0,1-.14-.72c0-.21,0-.45,0-.7a2.59,2.59,0,0,1,0-.44,1.26,1.26,0,0,1,.09-.31,1.16,1.16,0,0,1,.14-.27l.19-.36,0-.12a.26.26,0,0,1,.06-.15,1.5,1.5,0,0,1,0-.18,1.19,1.19,0,0,0,0-.17l.07-.06.11-.1.11-.11s.06-.05.06-.07,0,0,0-.07a1.24,1.24,0,0,1,0-.16l.06-.17a.64.64,0,0,1,0-.1s0,0,0,0l.1-.08.1-.08s.06,0,.06-.06,0,0,.1-.07l.1-.1.1-.07.15-.13.15-.13a.48.48,0,0,0,.1-.09s0,0,.08-.08l.13-.14.14-.13.08-.08.09,0,.16,0,.17,0h.08l.14,0,.24-.08.24-.08.16,0h.24a3.39,3.39,0,0,0,.45,0,2.75,2.75,0,0,1,.41,0,2.59,2.59,0,0,1,.4.09,1.74,1.74,0,0,1,.37.21l.16.15c.07.08.15.15.23.23s.16.15.23.23a1,1,0,0,1,.15.15q.07.12.15.27l.15.31a1,1,0,0,0,.2.26.39.39,0,0,0,.28.11.49.49,0,0,0,.35-.2l.39-.43a3.1,3.1,0,0,1,.51-.44,1.23,1.23,0,0,1,.73-.21h.12l.15,0a.19.19,0,0,1,.13.07l.07.16a1.17,1.17,0,0,0,0,.11s0,.06,0,.06a.61.61,0,0,0,.15.17.3.3,0,0,1,.12.17v.38a3.23,3.23,0,0,1,0,.46.7.7,0,0,1-.24.38.29.29,0,0,0-.1.05l-.15.1-.16.1L124.1,9h-.17l-.12-.1-.12-.09a3,3,0,0,0-.57-.11l-.61,0a.72.72,0,0,0-.51.17,1.58,1.58,0,0,0-.31.44,3,3,0,0,0-.2.55,5.46,5.46,0,0,1-.18.53.48.48,0,0,0-.1.12.64.64,0,0,1-.1.13c0,.1-.09.19-.12.26a1.24,1.24,0,0,1-.1.2,1.74,1.74,0,0,1-.11.18,1.3,1.3,0,0,1-.17.21,3.63,3.63,0,0,1-.25.27l-.4.41c-.15.15-.28.29-.41.41l-.27.27A2.44,2.44,0,0,1,119,13l-.46.21c-.16.06-.31.12-.46.16a1,1,0,0,1-.32.07.65.65,0,0,1-.29-.06.8.8,0,0,0-.26-.05,2.58,2.58,0,0,0-.6.07,4.77,4.77,0,0,1-.53.1,1,1,0,0,0-.34.53,2.08,2.08,0,0,0-.1.6v.08s0,0,0,.06a.54.54,0,0,0,0,.08.6.6,0,0,0,.09.15l.12.16.1.12a.84.84,0,0,0,.4.31,2,2,0,0,1,.44.23.17.17,0,0,1,.1.05l.16.11.16.11c.05,0,.08.06.1.06l.17,0,.16.05a1.75,1.75,0,0,1,.25.14l.32.22.31.23.24.17a.36.36,0,0,0,.09.09l.17.13.16.14.1.07a1.14,1.14,0,0,0,.44.24l.46.11a2.08,2.08,0,0,1,.66.29,2.42,2.42,0,0,1,.56.46,1.49,1.49,0,0,0,0,.26l.06.39c0,.13,0,.26,0,.38s0,.21,0,.27V20a4.89,4.89,0,0,1-.09,1,5.29,5.29,0,0,1-.26.92.92.92,0,0,1-.27.44l-.41.32a2.92,2.92,0,0,0-.32.28,3.31,3.31,0,0,1-.3.25,2,2,0,0,1-.32.18,1,1,0,0,1-.41.08h-2.14l-.18,0-.18,0h-1.27a.6.6,0,0,1-.18.07h-.31l-.14-.06-.21-.11-.21-.11-.14-.06a.24.24,0,0,1-.12,0l-.11-.05s0,0-.1-.08-.08-.06-.1-.06a1,1,0,0,0-.25-.2,1,1,0,0,0-.26-.11,1.07,1.07,0,0,0-.27-.07l-.32-.09a1.63,1.63,0,0,1-.57-.25l-.53-.4-.09-.1a.36.36,0,0,1-.07-.09.66.66,0,0,0,0-.16c0-.08,0-.14-.05-.19a1.91,1.91,0,0,0-.14-.21l-.14-.18a.7.7,0,0,1-.11-.21A1,1,0,0,1,110.92,20.46Zm2.12-.41v0l.41.45a5.84,5.84,0,0,0,.44.4.78.78,0,0,0,.13.13.51.51,0,0,1,.13.14l0,.06.09.11.09.11.05.06s0,0,.06.06l.08,0a4,4,0,0,0,.55.05.77.77,0,0,1,.48.2h1.52a5.21,5.21,0,0,0,.77-.07,1.35,1.35,0,0,0,.35-.2c.16-.12.32-.26.49-.41a4.32,4.32,0,0,0,.42-.45.59.59,0,0,0,.19-.34,1.63,1.63,0,0,0,0-.43,1,1,0,0,0-.14-.3,1.64,1.64,0,0,0-.22-.25,2.71,2.71,0,0,1-.26-.34.93.93,0,0,0-.48-.34,4.37,4.37,0,0,1-.55-.19l-.09,0-.07-.05-.09-.08-.13-.13-.13-.14-.08-.07a3.92,3.92,0,0,0-.77-.38,2.63,2.63,0,0,0-.86-.13c-.11,0-.18,0-.21.07a1.08,1.08,0,0,1-.13.19l-.08.1-.16.14c0,.06-.11.11-.16.16a.27.27,0,0,1-.11.09,1,1,0,0,1-.26.19l-.27.12a1.65,1.65,0,0,0-.25.15.86.86,0,0,0-.22.24s0,.07,0,.17a.46.46,0,0,1,0,.15l-.06.07-.1.11-.11.1,0,.06a.75.75,0,0,0-.05.16A1.08,1.08,0,0,1,113,20Zm3.65-8.39a1,1,0,0,0,.07.36.47.47,0,0,0,.29.23l.16-.05.23-.09.23-.11.14-.08a4.66,4.66,0,0,0,.86-.86,8.58,8.58,0,0,0,.67-1,2.37,2.37,0,0,0,.23-.65c.05-.24.09-.47.12-.68V8.52a3.32,3.32,0,0,0,0-.46c0-.14,0-.3-.06-.49s0-.07-.07-.07l-.12,0h-.08a1.69,1.69,0,0,0-.43,0,.89.89,0,0,0-.31.15,1.5,1.5,0,0,0-.27.24l-.27.35-.33.35L117.4,9a3.62,3.62,0,0,0-.27.41,1.81,1.81,0,0,0-.17.46,1.09,1.09,0,0,0,0,.15l0,.24a1.94,1.94,0,0,1,0,.24,1,1,0,0,0,0,.14,2,2,0,0,1-.11.49A1.84,1.84,0,0,0,116.69,11.66Z"/><path d="M0,58.43v-.52l.05-.14.14-.28.15-.32c.06-.1.1-.19.14-.26A1.14,1.14,0,0,1,1,56.39a2.37,2.37,0,0,1,.79-.1,1.34,1.34,0,0,1,.72.14,1,1,0,0,1,.34.35,4.79,4.79,0,0,1,.25.45,1.19,1.19,0,0,0,.43.44l.19.06.21.06s.06,0,.11.06.08.06.11.06a2.35,2.35,0,0,0,1.07.41,8.36,8.36,0,0,0,1.19.09.64.64,0,0,0,.4-.15,1.91,1.91,0,0,0,.33-.36,2.91,2.91,0,0,0,.26-.45,3.88,3.88,0,0,1,.19-.4,2.68,2.68,0,0,0,.14-.29l.17-.36A1.82,1.82,0,0,0,8,56.1L8.1,56a.58.58,0,0,1,0-.1,1.76,1.76,0,0,1,0-.19c0-.08,0-.15,0-.23s0-.14,0-.2,0-.09,0-.19l0-.32a3,3,0,0,1,0-.31c0-.09,0-.15,0-.17s0-.07,0-.14a2,2,0,0,0,.06-.23l0-.22c0-.07,0-.11,0-.14a1.35,1.35,0,0,0,0-.2c0-.1,0-.21,0-.32s0-.21-.05-.3a1.19,1.19,0,0,1,0-.17c0-.67,0-1.35,0-2s0-1.36,0-2a.3.3,0,0,0,0-.1,1.62,1.62,0,0,0,0-.19,1.16,1.16,0,0,1,0-.18.37.37,0,0,1,0-.13v-.37a3.36,3.36,0,0,1,.06-.63,3.6,3.6,0,0,0,.06-.66,2.88,2.88,0,0,0-.06-.59A2.81,2.81,0,0,1,8.1,45v-.12c0-.05,0-.17.07-.36s.07-.41.11-.63.08-.43.12-.63.06-.32.07-.38V41.86a1,1,0,0,1,.06-.27,1.24,1.24,0,0,0,.06-.23v-.21a1.49,1.49,0,0,0,0-.4,1.27,1.27,0,0,0-.24-.39,2,2,0,0,0,0-.44V38.6a2.15,2.15,0,0,0,0-.45,5.32,5.32,0,0,0-.11-1.07,5.31,5.31,0,0,1-.1-1c0-.6,0-1.19.06-1.78s.06-1.18.06-1.77v-.73c0-.1,0-.26-.05-.46s-.05-.4-.08-.61S8,30.3,8,30.13a1.92,1.92,0,0,0,0-.33l-.06-.15c0-.06-.06-.14-.1-.21s-.09-.15-.13-.22l-.08-.14a.44.44,0,0,0-.12-.1l-.11-.06H5l-.27-.09-.35-.13a1,1,0,0,1-.53-.46,1.9,1.9,0,0,1-.11-.7v-.27a.38.38,0,0,1,0-.19s.06-.14.18-.27a1.26,1.26,0,0,1,.28-.23h1.5l.2.06.34.08.35.09.21.06h.49c.58,0,1.16.06,1.73.12a16.86,16.86,0,0,0,1.76.09,1.79,1.79,0,0,0,.75-.17,1.84,1.84,0,0,1,.77-.17h.12l.53,0,.78,0,.78,0a3.83,3.83,0,0,1,.51,0,1.32,1.32,0,0,1,1.11,1.43,2.44,2.44,0,0,1,0,.28.68.68,0,0,1-.11.25l-.12.05a.62.62,0,0,1-.16,0,3.44,3.44,0,0,1-.8.16,7.86,7.86,0,0,1-.83.05l-.61,0-.57,0a3.06,3.06,0,0,0-.73.7,1.62,1.62,0,0,0-.28,1v.09A.36.36,0,0,0,12,31l0,.15s0,.12,0,.23l0,.38c0,.14,0,.27,0,.38s0,.2,0,.23v2.5c0,.81,0,1.61,0,2.38s0,1.57-.07,2.37a1.4,1.4,0,0,0,0,.25c0,.13,0,.28-.05.43s0,.31,0,.44,0,.21,0,.25v.17a.67.67,0,0,0,.07.33.54.54,0,0,1,.07.27v.11s0,.06-.08.16l-.06.18c0,.53,0,1,0,1.55v3.69c0,.71,0,1.42,0,2.13,0,.06,0,.15,0,.27l0,.4c0,.14,0,.28,0,.41a1.62,1.62,0,0,0,0,.26v.18a3.11,3.11,0,0,0,.07.69,3.84,3.84,0,0,1,.07.69s0,.05,0,.09a.28.28,0,0,0,0,.09v.1a.67.67,0,0,1-.12.27,1.21,1.21,0,0,0-.13.21,2.24,2.24,0,0,0-.05.27c0,.15,0,.31-.07.48a4.49,4.49,0,0,0-.06.48c0,.14,0,.24,0,.27l-.08.28-.09.36c0,.12,0,.22-.07.31a.63.63,0,0,1,0,.15l-.14.33q-.11.27-.27.6c-.11.21-.21.43-.33.65s-.2.39-.27.5a1.41,1.41,0,0,1-.2.35,1.86,1.86,0,0,1-.26.23c-.1.06-.19.13-.29.18a3.77,3.77,0,0,0-.33.22,1,1,0,0,1-.18.21.79.79,0,0,1-.17.16l-.25.12a1,1,0,0,0-.25.13l-.33.18-.23.15a1.71,1.71,0,0,1-.23.13,2.35,2.35,0,0,1-.34.14.36.36,0,0,1-.17.09l-.17,0a20.29,20.29,0,0,1-2.18.37,19,19,0,0,1-2.17.13,2.64,2.64,0,0,1-1.77-.54A2.21,2.21,0,0,1,0,58.43Z"/><path d="M24.28,51.55c-.63,0-1.24,0-1.85.08s-1.22.08-1.83.08h-.12l-.54-.08a2.61,2.61,0,0,1-.61-.16,1.64,1.64,0,0,1-.49-.31.69.69,0,0,1-.2-.53,1.42,1.42,0,0,1,0-.19.33.33,0,0,1,.11-.2.36.36,0,0,1,.18-.09l.19,0c.33,0,.66-.06,1-.07a7.57,7.57,0,0,0,1-.11,3.47,3.47,0,0,0,.91-.3,2.26,2.26,0,0,0,.79-.64c0-.52,0-1,.05-1.53s.08-1,.08-1.49a2.36,2.36,0,0,0-.07-.55,2.1,2.1,0,0,1-.06-.51V44.6s0-.09,0-.18,0-.17,0-.27,0-.19,0-.27,0-.14,0-.16V41.06a.85.85,0,0,1,0-.13,1.94,1.94,0,0,1,.05-.2,1.62,1.62,0,0,0,0-.19.84.84,0,0,0,0-.1,1.74,1.74,0,0,1,0-.18c0-.1,0-.22,0-.35s0-.25,0-.38V39c0-.13,0-.25,0-.38s0-.25,0-.36S23,38,23,38s0-.13,0-.26a1.92,1.92,0,0,0-.08-.27v-.14a1,1,0,0,1,.14-.53,1.18,1.18,0,0,0,.14-.58V36a1.06,1.06,0,0,0,0-.31.81.81,0,0,0-.12-.29V34.17a9.94,9.94,0,0,1,.08-1.24,9.67,9.67,0,0,0,.08-1.2v-.25a.28.28,0,0,1-.05-.1,1.42,1.42,0,0,0,0-.16A1.29,1.29,0,0,1,23,31a1,1,0,0,1,.06-.27c0-.13.07-.2.1-.22v-.13a.93.93,0,0,0-.25-.61,1.11,1.11,0,0,0-.51-.39l-.57-.09L21,29.14,20.18,29l-.55-.11a1.13,1.13,0,0,1-.65-.34,1,1,0,0,1-.22-.7.65.65,0,0,1,.31-.58,2.48,2.48,0,0,1,.72-.3,4.49,4.49,0,0,1,.83-.11l.65,0h.18l.34,0,.59.07L23,27l.34,0a.85.85,0,0,0,.33,0h1.05A1.22,1.22,0,0,0,25,27a.91.91,0,0,0,.43.14,2.71,2.71,0,0,0,.36,0,7.07,7.07,0,0,0,1.4-.14,7.49,7.49,0,0,1,1.47-.14h1a3.75,3.75,0,0,0,.44.24,2.86,2.86,0,0,1,.43.21,1.07,1.07,0,0,1,.34.29.8.8,0,0,1,.13.5,1.32,1.32,0,0,1-.05.31,1.87,1.87,0,0,1-.15.32,1.05,1.05,0,0,1-.24.27.51.51,0,0,1-.3.1,7,7,0,0,1-.78.11c-.26,0-.53,0-.81,0s-.59,0-.87,0-.57-.06-.87-.11c0,0,0,0-.06.08a.39.39,0,0,0,0,.14.85.85,0,0,0,0,.13,1.25,1.25,0,0,1,0,.19c0,.07,0,.16,0,.28v.28a1,1,0,0,1-.06.35l-.12.32-.12.31a.72.72,0,0,0-.07.33v.25a.56.56,0,0,1,.08.21.6.6,0,0,0,.08.19v1a.39.39,0,0,0,.06.15,1.48,1.48,0,0,1,.07.22c0,.31,0,.62.06.9s0,.59,0,.94a3.64,3.64,0,0,1-.18,1.12,3.76,3.76,0,0,0-.19,1.16v0s0,.07.07.13.06.14.09.23a1.36,1.36,0,0,1,.09.23c0,.08,0,.13,0,.15v.64a5.81,5.81,0,0,1-.15,1.32,6.43,6.43,0,0,0-.14,1.32c0,.57,0,1.14.08,1.7a15.81,15.81,0,0,1,.08,1.69v1.52a2.65,2.65,0,0,0-.08.33.87.87,0,0,1-.08.29.58.58,0,0,1,0,.1c0,.05,0,.1,0,.16a.75.75,0,0,0,0,.16l0,.09s0,.09,0,.19,0,.21,0,.33,0,.25,0,.36,0,.19,0,.24a1,1,0,0,0,.18.39,1.18,1.18,0,0,0,.28.22,1.37,1.37,0,0,0,.36.11l.4.09a.24.24,0,0,0,.14.07l.23.08.24.08.15.05.33,0,.51,0,.53,0,.35,0a.55.55,0,0,1,.2.21.67.67,0,0,1,.05.26v.16a1,1,0,0,1-.15.6,4.45,4.45,0,0,1-.45.48.29.29,0,0,0-.15.06l-.1.07h-.16c-.89-.06-1.76-.15-2.63-.25A20.71,20.71,0,0,0,24.28,51.55Z"/><path d="M37.17,51.55H33.82s-.09,0-.15-.12a2,2,0,0,1-.15-.26l-.12-.27a1.15,1.15,0,0,1,0-.15.92.92,0,0,1,.25-.63.76.76,0,0,1,.56-.29h.35a5,5,0,0,1,.55,0,4.43,4.43,0,0,1,.52,0h.33l.13-.08.12-.06a.53.53,0,0,0,.15-.12l.21-.23.22-.23a.81.81,0,0,0,.14-.16c0-.06,0-.17,0-.33s0-.33.05-.51,0-.36,0-.52,0-.28,0-.36a.77.77,0,0,0,.08-.28,1.28,1.28,0,0,1,.08-.32V45.52a.94.94,0,0,1,0-.16,2,2,0,0,0,.07-.26c0-.1,0-.19.07-.27a.57.57,0,0,0,0-.16c.08-.4.17-.83.26-1.29a6.2,6.2,0,0,0,.15-1.31,1.54,1.54,0,0,0-.08-.23.74.74,0,0,1-.08-.26V40.44c0-.53,0-1.06,0-1.59a8.78,8.78,0,0,1,.23-1.55.87.87,0,0,1,0-.13c0-.07.05-.14.08-.23a1.55,1.55,0,0,1,.07-.23.8.8,0,0,0,0-.16s0-.2.05-.44,0-.49.08-.77.06-.54.09-.78,0-.41,0-.48a1.13,1.13,0,0,1,0-.14c0-.08,0-.17.05-.27s0-.18,0-.26,0-.13,0-.14a.58.58,0,0,0,0-.14l-.09-.19-.1-.19a.35.35,0,0,1,0-.1.69.69,0,0,1,.06-.21c0-.11.07-.18.08-.2a1.09,1.09,0,0,0,0-.17c0-.07,0-.15,0-.23l0-.21c0-.06,0-.1,0-.11s0-.13,0-.24,0-.24,0-.37,0-.25,0-.36,0-.2,0-.25a.86.86,0,0,0-.65-.32c-.26,0-.51,0-.73-.06l-.14,0a1,1,0,0,1-.22-.09l-.23-.09-.14,0a6.55,6.55,0,0,0-.69-.16,3.53,3.53,0,0,1-.54-.14,1,1,0,0,1-.41-.3,1.69,1.69,0,0,1-.32-.62s0-.08.11-.14l.14-.11h.37l.21,0,.35-.08.36-.09a.87.87,0,0,1,.21,0h2l.13,0,.2,0,.27.07h2.6a2.57,2.57,0,0,1,1,.66,8,8,0,0,1,.74.93l.08.1.13.15a1.16,1.16,0,0,1,.11.16.33.33,0,0,1,0,.12s.05.08.07.21a.51.51,0,0,0,.09.26,2.64,2.64,0,0,0,.38.7,1.79,1.79,0,0,1,.31.75s0,.1,0,.21,0,.23,0,.35,0,.24,0,.35a1.27,1.27,0,0,1,0,.23,5.2,5.2,0,0,0,.26.56,4.32,4.32,0,0,1,.24.53,1.48,1.48,0,0,0,.06.25,1.48,1.48,0,0,1,.06.25l.09.12.16.19.16.18a.39.39,0,0,0,.09.11s0,.08,0,.16a2,2,0,0,1,0,.26l0,.28a1.39,1.39,0,0,1,0,.17,3.62,3.62,0,0,0,.47,1,6.55,6.55,0,0,1,.54,1,1.18,1.18,0,0,0,0,.16,2.19,2.19,0,0,1,0,.27l0,.27v.17s0,.1.07.24a1.26,1.26,0,0,1,.06.24.57.57,0,0,0,.23.31l.33.19a1.54,1.54,0,0,1,.31.22.47.47,0,0,1,.14.36v.3a1.05,1.05,0,0,1-.07.23,1.24,1.24,0,0,0-.06.23.62.62,0,0,0,0,.11l.06.21c0,.08,0,.16.07.24s0,.15.06.2a2.45,2.45,0,0,0,.14.29,2.9,2.9,0,0,0,.2.33,1.66,1.66,0,0,0,.26.27.4.4,0,0,0,.28.11.24.24,0,0,0,.18-.07.56.56,0,0,0,.11-.17l.09-.22a1,1,0,0,1,.11-.21,4,4,0,0,1,.51-.48,1.85,1.85,0,0,0,.47-.61l0-.18c0-.06,0-.11,0-.16a.74.74,0,0,0,0-.12,3,3,0,0,1,.19-.58c.07-.16.15-.31.23-.46s.17-.29.27-.44a5.47,5.47,0,0,0,.31-.5,3,3,0,0,0,.32-.68,2.87,2.87,0,0,1,.3-.67l.09-.11.16-.21.16-.19.09-.11a.72.72,0,0,0,.09-.21l.06-.28c0-.1,0-.19,0-.28a.83.83,0,0,1,.05-.2,8,8,0,0,1,.66-1.42,12.7,12.7,0,0,0,.71-1.43,2.29,2.29,0,0,0,.18-.66,3.2,3.2,0,0,1,.15-.66,2.43,2.43,0,0,0,.19-.36q.13-.3.27-.63l.28-.62c.08-.19.14-.31.16-.37s0-.1.06-.19a1.05,1.05,0,0,0,0-.18v-.09a.34.34,0,0,0,0-.15.58.58,0,0,1,0-.13v-.13c.09-.16.17-.33.27-.49a2.14,2.14,0,0,1,.32-.45,1.6,1.6,0,0,1,.42-.35,1.71,1.71,0,0,1,.59-.19h1.55l.15,0,.25-.07.24-.08.12,0q.57-.14,1.08-.21a9.72,9.72,0,0,1,1.15-.07h1.08a1.23,1.23,0,0,1,.43.09,1.63,1.63,0,0,1,.45.24,1.8,1.8,0,0,1,.36.37.76.76,0,0,1,.14.43.53.53,0,0,1-.12.3,1.88,1.88,0,0,1-.27.3,3.33,3.33,0,0,1-.32.24.63.63,0,0,1-.25.1,2,2,0,0,1-.56-.07,2.62,2.62,0,0,0-.57-.06,4,4,0,0,0-.6.05,2.28,2.28,0,0,0-.65.2.75.75,0,0,0-.34.32,1.78,1.78,0,0,0-.19.47,3.06,3.06,0,0,0-.07.54c0,.18,0,.36,0,.51v.3a2.82,2.82,0,0,0,0,.34,2,2,0,0,0,.05.26c0,.08,0,.16.08.25a1.65,1.65,0,0,1,.08.32s0,.16,0,.3,0,.28,0,.43,0,.29,0,.42,0,.23,0,.28c0,1.08,0,2.16-.09,3.23s-.08,2.14-.05,3.22a.69.69,0,0,1-.06.18A.46.46,0,0,0,60,41v.14c.06.3.12.63.18,1a5.69,5.69,0,0,1,.09,1,3,3,0,0,1-.13.86,2.61,2.61,0,0,0-.14.85V45a1.81,1.81,0,0,0,0,.25.63.63,0,0,0,.11.26v.2c0,.1,0,.21,0,.32s0,.22,0,.32v.49c0,.11,0,.23,0,.34s0,.21,0,.3v.15s0,.08-.06.21a.87.87,0,0,0-.07.27v.46a1.17,1.17,0,0,0,.1.25l.13.24.1.14.16.2.15.19.09.09a.32.32,0,0,1,.08.13.38.38,0,0,1,0,.14.27.27,0,0,1,.07.08.12.12,0,0,0,.09,0h.48l.13,0,.24.07.23.07.14,0s.05,0,.13,0l.22,0,.22.05.14,0,.16.06.23.1.22.11.11.07s0,.07,0,.14,0,.11,0,.12a.57.57,0,0,1-.23.44.83.83,0,0,1-.53.18H57.06a1.08,1.08,0,0,0-.28.06.78.78,0,0,1-.22.07h-.24l-.12,0-.2.07-.2.07-.1,0H54.44a.76.76,0,0,1-.48-.23.66.66,0,0,1-.24-.48v-.12a2.83,2.83,0,0,0,.44-.06,2.17,2.17,0,0,1,.44-.07l.17-.06a.56.56,0,0,1,.17-.06l.13,0,.2,0,.19-.05.1,0a.57.57,0,0,0,.32-.29,2,2,0,0,0,.18-.48,3,3,0,0,0,.08-.51c0-.17,0-.32,0-.44a21.75,21.75,0,0,0,.27-2.26c0-.75.13-1.52.22-2.3,0-.12,0-.33,0-.64s0-.65,0-1,0-.68,0-1,0-.53,0-.66,0-.51,0-.87,0-.72,0-1.07,0-.67,0-.94,0-.42,0-.44,0-.24,0-.47,0-.48,0-.74,0-.5,0-.74a4.76,4.76,0,0,0,0-.51,1.26,1.26,0,0,0,0-.21c0-.11-.06-.22-.1-.33a2.09,2.09,0,0,0-.14-.3c0-.09-.1-.13-.15-.13a.37.37,0,0,0-.26.08,1,1,0,0,0-.17.18l-.13.23a.8.8,0,0,1-.15.21.4.4,0,0,1-.1.13l-.18.19-.2.19-.14.09a.34.34,0,0,1,0,.15.34.34,0,0,0-.05.14,5.37,5.37,0,0,1-.5.91,5.91,5.91,0,0,0-.5.93,6.73,6.73,0,0,0-.26,1,7.79,7.79,0,0,1-.24,1,.43.43,0,0,1-.15.32.51.51,0,0,0-.18.3s0,.05,0,.12a1.18,1.18,0,0,0,0,.2c0,.07,0,.14,0,.2s0,.1,0,.12l-.14.14-.23.22-.24.23-.13.15a.61.61,0,0,0-.16.36,1,1,0,0,1-.09.36s0,.1,0,.2a1.05,1.05,0,0,0,0,.18s-.07.08-.15.16a1.1,1.1,0,0,1-.14.17,4.41,4.41,0,0,0-.24,1,5.86,5.86,0,0,1-.23.94,2.37,2.37,0,0,0-.14.28l-.16.39-.15.36a1.72,1.72,0,0,1-.08.19.78.78,0,0,1-.09.22c-.06.11-.12.24-.19.38s-.13.28-.19.4a1.49,1.49,0,0,1-.14.24v.14c0,.09,0,.17,0,.27s0,.18,0,.26a1.25,1.25,0,0,0,0,.14,1.22,1.22,0,0,1-.07.28,1.24,1.24,0,0,0-.06.22l-.15.31c-.06.15-.14.3-.22.46S49,50,49,50.17a2.63,2.63,0,0,1-.15.28,4.25,4.25,0,0,0-.39.25.77.77,0,0,1-.44.14.64.64,0,0,1-.46-.22,3.18,3.18,0,0,1-.42-.52,5.2,5.2,0,0,1-.32-.62,2.72,2.72,0,0,1-.16-.53c-.06-.21-.11-.41-.15-.58s-.08-.35-.12-.53-.08-.34-.13-.52a5.51,5.51,0,0,0-.22-.58l-.12-.2c-.06-.12-.13-.23-.2-.36s-.14-.24-.19-.34-.1-.17-.11-.2a5.12,5.12,0,0,1-.48-1.14,10.82,10.82,0,0,0-.41-1.21,17.61,17.61,0,0,0-.74-1.75,14.07,14.07,0,0,1-.72-1.8.32.32,0,0,1,0-.13,1.52,1.52,0,0,1,0-.23,1.79,1.79,0,0,1,0-.23A.88.88,0,0,1,43,39a.91.91,0,0,1-.14-.18l-.14-.19a.67.67,0,0,0-.06-.17,1.07,1.07,0,0,1,0-.16s0-.07-.05-.14,0-.13-.08-.2l-.09-.19-.06-.09s0-.1,0-.19l0-.27,0-.27a.6.6,0,0,1,0-.16.5.5,0,0,1-.08-.15l-.1-.21a2.09,2.09,0,0,0-.1-.21l-.09-.15-.37-.37a1.9,1.9,0,0,1-.27-.51q-.1-.29-.24-.57a1.7,1.7,0,0,0-.33-.48.79.79,0,0,0-.56-.19h-.11a3.44,3.44,0,0,0-.11.58c0,.18,0,.35,0,.52s0,.35,0,.53,0,.39,0,.61a1.36,1.36,0,0,1-.06.24,1.36,1.36,0,0,0-.06.24v.19a1.32,1.32,0,0,0,.06.39,1.44,1.44,0,0,1,.06.43v.1l-.18.85a4.27,4.27,0,0,0-.08.89,4.91,4.91,0,0,0,.13,1.16,5.06,5.06,0,0,1,.13,1.17,1.62,1.62,0,0,1-.06.22c0,.05,0,.11-.05.16a.51.51,0,0,0,0,.1v1.84a.54.54,0,0,1,0,.15,2.76,2.76,0,0,1-.08.27l-.09.27-.06.17v.18a.7.7,0,0,0,0,.27,1.88,1.88,0,0,0,.12.31v2.65a1.42,1.42,0,0,1,.14.36c0,.13.07.26.11.39a1.91,1.91,0,0,0,.13.36.73.73,0,0,0,.22.27l.91.11a3.72,3.72,0,0,1,.93.23.53.53,0,0,0,.17.15l.17.13a1.08,1.08,0,0,0,.28.11.92.92,0,0,1,.25.09.43.43,0,0,1,.17.16.55.55,0,0,1,.06.28.67.67,0,0,1-.11.39.75.75,0,0,1-.26.21,1.06,1.06,0,0,1-.36.09l-.37,0a14.66,14.66,0,0,1-1.48-.07c-.5,0-1-.06-1.49-.06h-.46l-.1,0-.16,0-.15.05-.1,0-.15,0-.25-.07-.26-.08A.57.57,0,0,1,37.17,51.55Z"/><path d="M75.39,41.74l-.28-.5s0-.1,0-.26,0-.36-.06-.58,0-.44-.07-.68,0-.43,0-.58v-.5c0-.15,0-.39.07-.72s.07-.67.11-1,.07-.65.1-.93.07-.46.09-.53a4.11,4.11,0,0,1,.5-1.49q.41-.69.84-1.32l.27-.39.41-.6.4-.6.27-.38a4.87,4.87,0,0,0,.76-.52q.34-.29.69-.6l.67-.62a7.45,7.45,0,0,1,.69-.57,1.14,1.14,0,0,1,.22-.16l.19-.12L81.4,28l.16,0,.09,0a.83.83,0,0,0,.27-.08l.46-.16.47-.16.27-.08a6.46,6.46,0,0,1,1.28-.21l1.36,0h2.9l.26.07.41.1.4.11.29.07,1.08.46c.33.14.7.28,1.11.41h0a1.81,1.81,0,0,0,.51-.08c.16-.06.32-.11.48-.18l.48-.18a1.62,1.62,0,0,1,.49-.08c.12,0,.2.07.24.22a1.65,1.65,0,0,1,.06.46c0,.11,0,.23,0,.33s0,.2,0,.27a1,1,0,0,0,0,.24,1.94,1.94,0,0,1,0,.22V31a2.47,2.47,0,0,0,.09.5c.05.16.1.32.14.48s.09.32.14.48A2.07,2.07,0,0,1,95,33c0,.24,0,.46,0,.68a2.28,2.28,0,0,1-.11.59,1.27,1.27,0,0,1-.27.48,1.37,1.37,0,0,1-.52.36,1.22,1.22,0,0,1-.28.1l-.22.06-1-.52,0-.1a.93.93,0,0,0-.05-.14c0-.11-.1-.28-.18-.53L92,33.19c-.08-.28-.17-.54-.25-.78s-.14-.41-.16-.51a1.26,1.26,0,0,1-.16-.19l-.22-.3L91,31.1a1.47,1.47,0,0,0-.17-.2,1.61,1.61,0,0,0-.18-.17l-.25-.23a2,2,0,0,0-.25-.2L90,30.21l-.19-.05-.32,0-.31,0H89L88.83,30a.46.46,0,0,1-.17-.1h-.61s-.1-.05-.15-.15a.68.68,0,0,0-.13-.18,1,1,0,0,1,0-.23.92.92,0,0,0,0-.2,1.31,1.31,0,0,1-.27,0,1.23,1.23,0,0,0-.28,0h0s-.06,0-.12.11-.1.12-.12.12l-.27.16a.8.8,0,0,1-.23.12h-1l-.2,0-.17.05H85a1.27,1.27,0,0,1-.34-.05,1.29,1.29,0,0,0-.33,0,1.62,1.62,0,0,0-.52.1,2.05,2.05,0,0,0-.47.23l-.23.24-.39.4-.4.39-.24.23-.08.05a.18.18,0,0,1-.08.05l0,0-.12.09-.19.15-.18.16-.11.1c-.06.07-.15.19-.26.35l-.39.54-.37.56-.22.37s0,0-.06.11-.06.17-.11.28a3,3,0,0,0-.11.32,1.1,1.1,0,0,1-.11.24s0,.08,0,.16,0,.15-.07.24-.06.17-.08.24a.48.48,0,0,0,0,.12l-.1.16-.12.27c0,.09-.08.18-.11.27a.92.92,0,0,1-.08.17v1.36a.69.69,0,0,1,0,.18L79,38c0,.08,0,.17-.07.24l-.06.15v2.73a.7.7,0,0,1,.14.41,1.24,1.24,0,0,0,.07.45s0,0,.06.06l.07,0a3.68,3.68,0,0,1,.31,1.16,10.27,10.27,0,0,0,.18,1.19.23.23,0,0,0,.07.13.31.31,0,0,1,.06.12c.14.32.28.63.41.95s.28.61.44.9a6.22,6.22,0,0,0,.53.84,4.65,4.65,0,0,0,.72.76l.46.33a2.25,2.25,0,0,0,.51.29l.22,0,.36.06.34.07a.81.81,0,0,1,.2,0l.14.12.18.19.18.18.1.13a1.09,1.09,0,0,0,.23,0l.37,0,.38,0h.26l.14,0,.23.05.23,0h.12a2.69,2.69,0,0,0,1.09-.31,2.5,2.5,0,0,0,.87-.66.5.5,0,0,0,.08-.15c0-.06,0-.1.07-.1a.34.34,0,0,1,.22-.15l.27,0h.46l.14,0a.21.21,0,0,0,.14-.09s0-.07.11-.13l.19-.21.18-.22.12-.13a.69.69,0,0,0,.09-.18l.15-.29.15-.27.11-.16c.15-.22.3-.43.45-.61a2.75,2.75,0,0,0,.4-.73c.09-.24.18-.52.27-.85s.16-.62.22-.87,0-.21.07-.28,0-.14,0-.21,0-.1,0-.11a1.63,1.63,0,0,1,.47-.89,1.26,1.26,0,0,1,.91-.33,1.13,1.13,0,0,1,.58.14,1.27,1.27,0,0,1,.37.36,1.41,1.41,0,0,1,.2.52,2.22,2.22,0,0,1,.07.57c0,.13,0,.25,0,.36a.85.85,0,0,1-.14.37V46.9a.51.51,0,0,1,.12.16.39.39,0,0,1,0,.17v.13a1,1,0,0,0-.07.2q-.06.15-.12.33c0,.12-.08.23-.11.34l-.09.22c0,.06,0,.12-.08.17a.33.33,0,0,0,0,.12,2.07,2.07,0,0,1-.65.32c-.22.06-.45.1-.66.14s-.44.07-.66.12a2.24,2.24,0,0,0-.63.25l-.14.13-.22.2-.22.18-.12.09a7.61,7.61,0,0,1-.85.54,3.68,3.68,0,0,1-.9.34l-1.75.5a6.84,6.84,0,0,1-1.82.25c-.38,0-.77,0-1.18-.06s-.82-.08-1.23-.15a11.77,11.77,0,0,1-1.21-.24c-.4-.09-.77-.19-1.12-.3a.61.61,0,0,1-.3-.15,1.92,1.92,0,0,1-.19-.23c0-.09-.11-.17-.17-.26a.82.82,0,0,0-.25-.24l-.19-.11-.35-.2-.38-.23-.3-.17-.15-.08-.1-.05-.1-.09a1.56,1.56,0,0,1-.12-.17L78.49,49a2.3,2.3,0,0,1-.15-.23c0-.09-.11-.17-.16-.25l-.1-.15-.12-.1c-.06-.06-.12-.13-.19-.19l-.19-.19-.12-.12-.08-.12a1.86,1.86,0,0,0-.14-.2l-.15-.22A1.52,1.52,0,0,1,77,47q-.42-.71-.72-1.32a10.26,10.26,0,0,1-.5-1.23,8.54,8.54,0,0,1-.29-1.28A10.65,10.65,0,0,1,75.39,41.74Z"/><path d="M117.71,51.51a3.82,3.82,0,0,0-.75.08,2.94,2.94,0,0,1-.72.08.89.89,0,0,1-.32-.1,4.49,4.49,0,0,1-.47-.26L115,51a1.3,1.3,0,0,1-.26-.23,4,4,0,0,1-.39-.73,3.91,3.91,0,0,0-.37-.7,1.19,1.19,0,0,0-.18-.28c-.1-.12-.15-.19-.15-.22s-.06-.1-.12-.19l-.16-.31-.14-.31a.65.65,0,0,1-.06-.2.8.8,0,0,1-.15-.16,1.53,1.53,0,0,1-.13-.21L112,46.22c-.29-.42-.57-.85-.84-1.3a.34.34,0,0,0,0-.13l-.08-.12a9.47,9.47,0,0,0-.51-1.06c-.19-.33-.39-.67-.59-1a.42.42,0,0,0,0-.09l-.08-.16-.08-.16c0-.05,0-.09-.06-.1a.85.85,0,0,1-.22-.13l-.27-.2-.14-.1-.22-.16-.22-.15-.15-.09-.18-.19-.19-.2-.13-.07-.21-.11-.22-.12-.16-.07-.25,0a.87.87,0,0,1-.25-.08.94.94,0,0,1-.24-.11.76.76,0,0,0-.29-.11h0c-.08,0-.16.07-.27.19a5.11,5.11,0,0,0-.32.42,4.49,4.49,0,0,0-.26.47,1.06,1.06,0,0,0-.11.32,2.39,2.39,0,0,0,.08.62,2.45,2.45,0,0,1,.08.62,2.08,2.08,0,0,1-.08.58,2,2,0,0,0-.08.55,1.76,1.76,0,0,0,.12.63,3.47,3.47,0,0,1,.16.59v2.23a1.28,1.28,0,0,1-.06.25,1.8,1.8,0,0,0-.06.24V48a1.44,1.44,0,0,0,.24.85,2.21,2.21,0,0,0,.59.59,4,4,0,0,0,.77.41l.77.35a3,3,0,0,1,.59.36.57.57,0,0,1,.24.46.49.49,0,0,1-.15.36,1.1,1.1,0,0,1-.37.25,1.94,1.94,0,0,1-.45.14,2.3,2.3,0,0,1-.39,0H107l-.59,0c-.21,0-.4,0-.58,0l-.38,0-4.19,0a.8.8,0,0,1-.36.11l-.41,0H99.16a2.36,2.36,0,0,1-.3-.16c-.13-.08-.2-.17-.2-.27a.5.5,0,0,1,.1-.26,1.43,1.43,0,0,1,.23-.26,1.48,1.48,0,0,1,.27-.19.48.48,0,0,1,.23-.08h2s.06,0,.1-.07a1,1,0,0,0,.12-.15l.09-.16a.33.33,0,0,0,0-.12V48.86s0-.12,0-.26,0-.27,0-.43,0-.3,0-.43,0-.22,0-.26,0-.16,0-.33,0-.35,0-.52V46.4a.18.18,0,0,1,0-.14v-.11c0-.07,0-.22,0-.47s0-.62,0-1.12,0-1.2,0-2.1a1.28,1.28,0,0,0,.25-.56,4.83,4.83,0,0,0,0-.59c0-.08,0-.19,0-.33s0-.21,0-.23a.35.35,0,0,0-.06-.14.33.33,0,0,1-.06-.13v0a5.12,5.12,0,0,1,.08-.94,6.3,6.3,0,0,0,.08-1,1.44,1.44,0,0,0-.08-.53.93.93,0,0,1-.08-.42v-.06a1.07,1.07,0,0,1,.06-.23,1.53,1.53,0,0,0,.06-.22c0-.05,0-.13,0-.23s0-.2,0-.31,0-.2,0-.29a1.06,1.06,0,0,1,0-.18V34.57s0-.18,0-.41.07-.48.11-.74.08-.52.12-.75a3.32,3.32,0,0,1,.07-.43V31.3a1.14,1.14,0,0,1,0-.15c0-.07,0-.16.05-.24s0-.17,0-.24,0-.11,0-.13V30.3a.57.57,0,0,0-.11-.19,1.86,1.86,0,0,0-.14-.19l-.11-.12-.16-.15-.14-.13a.21.21,0,0,0-.08-.06,1,1,0,0,0-.29-.08,1.18,1.18,0,0,1-.31-.07,1.27,1.27,0,0,1-.3-.06l-.45-.1-.43-.11-.27-.07a1.66,1.66,0,0,1-.68-.36.83.83,0,0,1-.33-.65.35.35,0,0,1,.1-.25.84.84,0,0,1,.23-.18,1.11,1.11,0,0,1,.29-.13,1.51,1.51,0,0,1,.26,0l.37,0a1.8,1.8,0,0,1,.38.1l1.27.09c.42,0,.84.06,1.24.06a10.84,10.84,0,0,0,1.16-.06l1.1-.09a1.11,1.11,0,0,1,.26-.1l.25,0a.53.53,0,0,1,.38.13.56.56,0,0,0,.38.14,6.4,6.4,0,0,0,.88-.07l.86-.13.84-.13a5.87,5.87,0,0,1,.85-.06h.68a.52.52,0,0,0,.26.12l.32.05.3,0,.23,0a.63.63,0,0,1,.21.17l.18.19,2,.62.35.33c.08.1.17.19.26.29a1.69,1.69,0,0,1,.2.23,1.3,1.3,0,0,1,.15.18,1.86,1.86,0,0,0,.14.19,1.52,1.52,0,0,0,.59.47,1.24,1.24,0,0,1,.5.39,4.69,4.69,0,0,1,.39,1,10.35,10.35,0,0,0,.36,1,.29.29,0,0,0,0,.09l.07.15.07.16a.27.27,0,0,1,0,.1v.12a.36.36,0,0,1,0,.11,1.34,1.34,0,0,1-.07.18c0,.07,0,.13-.07.19a.49.49,0,0,0,0,.12v1.35a.34.34,0,0,1,0,.1.6.6,0,0,1-.09.15,1,1,0,0,1-.1.15l-.06.09a.83.83,0,0,1,0,.12,1.5,1.5,0,0,1,0,.2,1.17,1.17,0,0,1,0,.2.25.25,0,0,1,0,.1,4.92,4.92,0,0,1-.43,1.12,7.84,7.84,0,0,1-.74,1.1,6.49,6.49,0,0,1-.94.95,4.17,4.17,0,0,1-1,.65l-.25,0c-.15,0-.24,0-.26.08a1.34,1.34,0,0,0-.49.55l-.34.67a.16.16,0,0,0,0,.06l.09,0c.41.36.8.72,1.17,1.1a9.73,9.73,0,0,1,1,1.25.71.71,0,0,0,.06.19c0,.1.06.16.07.19a.31.31,0,0,0,0,.12.48.48,0,0,0,.08.12,4.55,4.55,0,0,1,.25.49,4.55,4.55,0,0,0,.25.49,3.32,3.32,0,0,0,.23.4q.1.16.21.3c.07.1.15.19.23.29a4.26,4.26,0,0,1,.28.35c.28.38.57.77.86,1.19a3.89,3.89,0,0,0,1,1,2.67,2.67,0,0,0,.77.4,7.4,7.4,0,0,1,.8.33,1.94,1.94,0,0,1,.63.5,1.35,1.35,0,0,1,.26.87v.29c0,.06,0,.12,0,.19a.15.15,0,0,1-.1.14l-.23,0a1.43,1.43,0,0,0-.28.08H120l-.38,0-.44.05-.36,0h0a.42.42,0,0,1-.21-.06l-.22-.14a1.08,1.08,0,0,0-.26-.14A.67.67,0,0,0,117.71,51.51Zm-11-12.25.55,0,.84,0,.84.05.54,0h.28a2.45,2.45,0,0,0,.36-.07,1.45,1.45,0,0,0,.26-.07,3.33,3.33,0,0,0,1-.56A4.27,4.27,0,0,0,112,38a8.32,8.32,0,0,0,.56-.85,8.67,8.67,0,0,1,.61-.93,1.72,1.72,0,0,1,.12-.22.43.43,0,0,0,.09-.19l0-.15a2.91,2.91,0,0,0,0-.31c0-.1,0-.2,0-.3s0-.15,0-.17,0-.11.06-.25a.63.63,0,0,1,.08-.25v-.3a7.15,7.15,0,0,0,0-.78,1.87,1.87,0,0,0-.23-.76,6.82,6.82,0,0,1-.41-.87,5.49,5.49,0,0,0-.42-.84l-.1-.1-.12-.16a.91.91,0,0,1-.11-.16c0-.05-.06-.08-.08-.09a.4.4,0,0,0-.07-.14,2.22,2.22,0,0,0-.15-.23c-.05-.07-.1-.15-.16-.22l-.09-.12a.11.11,0,0,0-.05-.09s0,0-.08,0a.76.76,0,0,0-.3-.1l-.31,0-.31,0a.55.55,0,0,1-.3-.14l-.41-.24c-.13-.07-.25-.14-.37-.19a2.46,2.46,0,0,0-.41-.13,3.8,3.8,0,0,0-.52,0h-.25l-.27,0-.4,0-.42.05H107l-.1.11-.19.19-.19.18-.14.13s0,.07,0,.16a.73.73,0,0,1-.07.21,1,1,0,0,1-.06.25,1.08,1.08,0,0,0-.06.28,1.54,1.54,0,0,0-.1.41.68.68,0,0,1-.16.4v1.63c0,.07,0,.25,0,.55s0,.63,0,1,0,.67,0,1,0,.49,0,.56,0,.2,0,.42,0,.47,0,.73,0,.5,0,.73,0,.37,0,.43v.32a.88.88,0,0,0,.22.55A1,1,0,0,0,106.66,39.26Z"/><path d="M131.76,52c0-.06-.08-.12-.2-.17l-.27-.12-.21-.06-.38-.11-.43-.1-.33-.06a.19.19,0,0,0-.09,0l-.19,0-.2,0-.14,0-.12-.09L129,50.9l-.23-.21-.13-.11-.83-.62c-.28-.21-.57-.44-.85-.67s-.56-.46-.82-.69a7.93,7.93,0,0,1-.7-.73.22.22,0,0,1-.09-.1c0-.06-.07-.13-.11-.2s-.07-.13-.1-.19-.06-.1-.08-.11c-.16-.25-.34-.5-.53-.76a4.49,4.49,0,0,1-.46-.83,1.2,1.2,0,0,0,0-.25,2.45,2.45,0,0,1,0-.25c-.1-.3-.2-.59-.32-.86a5.56,5.56,0,0,1-.3-.87c-.09-.34-.18-.68-.25-1s-.15-.69-.25-1V41c0-.18,0-.36,0-.56s0-.38,0-.55,0-.3,0-.37,0-.28,0-.48,0-.4,0-.59,0-.37,0-.52v-.25a6,6,0,0,1,.41-1.81l.71-1.77a.9.9,0,0,1,0-.12,1.42,1.42,0,0,0,.07-.22c0-.08,0-.15.08-.22a.93.93,0,0,1,.05-.14s0-.07.13-.14l.25-.23.25-.23a.64.64,0,0,1,.15-.13,8.83,8.83,0,0,0,.78-1.14,4.88,4.88,0,0,1,.91-1.1,1.23,1.23,0,0,1,.34-.26,2.15,2.15,0,0,1,.32-.13l.33-.12a3.07,3.07,0,0,0,.38-.18.29.29,0,0,1,.06-.1l.14-.17a1.21,1.21,0,0,1,.16-.16l.11-.1.22-.14c.1-.08.21-.15.33-.23l.34-.23a2,2,0,0,1,.23-.16l.16,0,.1,0,.07,0a2.58,2.58,0,0,0,.51-.28l.51-.33a2.92,2.92,0,0,1,.52-.28,1.28,1.28,0,0,1,.53-.12,1.51,1.51,0,0,1,.48.07,1.51,1.51,0,0,0,.48.07h.17a1,1,0,0,0,.24-.06l.22-.06h.83l.57,0c.21,0,.43,0,.65.07l.63.11a2.84,2.84,0,0,1,.54.18l.2.09.3.16.31.16.2.08s.1.05.23.08l.23.05a1.67,1.67,0,0,1,.67.38,7.06,7.06,0,0,0,.58.47,2.14,2.14,0,0,0,.58.31,2.9,2.9,0,0,1,.64.31l.13.12s0,.07,0,.13l.06.2a1.34,1.34,0,0,1,.07.18c0,.06,0,.09,0,.09a.62.62,0,0,0,.34.3,1.58,1.58,0,0,1,.42.2,2.59,2.59,0,0,1,.45.4,5.75,5.75,0,0,1,.46.59c.15.21.28.42.41.64a4.14,4.14,0,0,1,.27.59.44.44,0,0,1,.06.24,2.49,2.49,0,0,1,0,.26.63.63,0,0,1,.09.2c0,.09.05.13.07.13a1.13,1.13,0,0,0,.13.16l.22.23.23.23a.63.63,0,0,0,.16.13V35l-.07.1a.37.37,0,0,0-.05.15v0a2.3,2.3,0,0,0,.14.79,4.61,4.61,0,0,1,.21.75c.08.48.15,1,.19,1.44s.06,1,.06,1.44v1s0,.12,0,.25,0,.22,0,.24a.17.17,0,0,0,0,.12v.18c0,.17,0,.33,0,.49s0,.26,0,.31l-.06.13-.09.2-.08.19a.33.33,0,0,0,0,.1s0,.1,0,.21,0,.22-.05.34,0,.24,0,.35,0,.17,0,.19a.3.3,0,0,1,0,.14l-.08.14a.71.71,0,0,1-.09.15l-.16.22c-.06.07-.11.15-.16.22l-.09.14a.93.93,0,0,0,0,.14c0,.07-.05.15-.08.23l-.09.23-.06.14-.18.41c-.07.15-.15.31-.24.47s-.18.31-.27.46-.18.27-.25.38l-.12.09a.51.51,0,0,1-.16.12l-.79.72-.76.75c-.25.24-.51.49-.77.72a6.68,6.68,0,0,1-.83.66,1.44,1.44,0,0,0-.63.17,2.9,2.9,0,0,1-.59.3.51.51,0,0,1-.18.08.82.82,0,0,1-.22,0l-1.4.4-1.42.38a.89.89,0,0,0-.36.11.65.65,0,0,1-.36.1h-.12l-.19-.06-.19,0-.33,0-.53,0-.53,0Zm-4.65-8.12a3.15,3.15,0,0,1,.49.64l.42.7a1.67,1.67,0,0,0,0,.25.7.7,0,0,0,.06.25q.1.23.27.51c.11.19.22.38.34.56l.38.54c.13.17.25.32.36.44l.07.08.11.13a1.59,1.59,0,0,0,.13.13s.06,0,.08,0a2.12,2.12,0,0,1,.13.25,2.08,2.08,0,0,1,.1.24l.39.39a.39.39,0,0,0,.14.07l.26.11a2.18,2.18,0,0,1,.27.11l.16.07.08,0,.08,0,.1.05a6,6,0,0,0,1.26.71,3.55,3.55,0,0,0,1.41.28.84.84,0,0,0,.5-.15,1.49,1.49,0,0,1,.51-.22l.11,0,.21,0,.19,0,.09,0a1.07,1.07,0,0,0,.27-.16l.27-.23c.09-.08.17-.17.25-.25l.2-.21L137,49l.31-.19.32-.2.2-.12a2.68,2.68,0,0,0,.34-.34c.12-.16.26-.33.39-.52a5.77,5.77,0,0,0,.37-.54c.1-.17.18-.32.24-.44l.05-.18a1,1,0,0,0,0-.17,2.19,2.19,0,0,1,.26-.37q.14-.16.27-.3a4,4,0,0,0,.27-.31,2.32,2.32,0,0,0,.21-.38,2.86,2.86,0,0,0,.22-1,6.35,6.35,0,0,1,.11-1,.57.57,0,0,0,.1-.17.67.67,0,0,0,.06-.17v-1.1a2.73,2.73,0,0,1,.19-.76,1.85,1.85,0,0,0,.15-.74V39.9c0-.16,0-.36,0-.62s-.05-.51-.07-.76,0-.46-.07-.65,0-.28,0-.31a1.08,1.08,0,0,1-.07-.18c0-.1-.08-.21-.13-.32s-.09-.22-.13-.31a1.6,1.6,0,0,1-.08-.2c-.1-.34-.2-.7-.28-1.07a7.14,7.14,0,0,0-.32-1.08,5.71,5.71,0,0,0-.91-1.85,19.84,19.84,0,0,0-1.3-1.58.35.35,0,0,0-.11-.16l-.14-.13-.68-.42a6.9,6.9,0,0,1-.63-.42l-.23-.14a.77.77,0,0,1-.16-.11,1.67,1.67,0,0,0-.68-.17,3.94,3.94,0,0,1-.68-.08l-.11-.06c-.07,0-.1-.06-.12-.06l-.09,0h-.15l-.15,0-.14,0-.09.07-.12.05h-.62a.86.86,0,0,0-.29.1,1.8,1.8,0,0,0-.31.15l-.2.12-.33.23-.34.24-.23.17s-.08,0-.15.1l-.09.11-.23.11-.39.15-.39.15a.74.74,0,0,0-.21.09s-.07.06-.14.16l-.25.34a3.89,3.89,0,0,0-.28.39,2.94,2.94,0,0,0-.23.33c-.18.29-.35.59-.51.91s-.31.62-.47.92a1.23,1.23,0,0,0-.12.37,2.3,2.3,0,0,0,0,.39,2.58,2.58,0,0,1,0,.39,1.27,1.27,0,0,1-.12.36s-.07.06-.14.16a1.79,1.79,0,0,1-.15.17.46.46,0,0,1,0,.1.94.94,0,0,0,0,.16l0,.16a.27.27,0,0,0,0,.1c-.09.27-.19.54-.31.81a1.85,1.85,0,0,0-.19.81v.22l0,.1c0,.06,0,.13,0,.2l.06.2a.34.34,0,0,1,0,.11.77.77,0,0,1,0,.18l-.06.3c0,.11,0,.21,0,.3s0,.16,0,.2v.72a2.21,2.21,0,0,1,.14.26,1.08,1.08,0,0,0,.13.24s0,.11,0,.23,0,.24,0,.38,0,.26,0,.38a1.62,1.62,0,0,0,0,.23c0,.06,0,.16.06.3s0,.29.07.45,0,.31.07.45A2.44,2.44,0,0,1,127.11,43.84Z"/><path d="M148.86,30.42a2,2,0,0,0-.21-.21c-.11-.11-.22-.22-.33-.35l-.32-.34-.22-.21a.73.73,0,0,0-.32-.15l-.39-.07a1.33,1.33,0,0,1-.41-.14,1,1,0,0,1-.38-.37v-.07a.37.37,0,0,1,.11-.27.46.46,0,0,1,.26-.15c.54-.1,1.08-.17,1.6-.22s1.05-.1,1.58-.17l.2-.06.21-.05h.21l.15,0,.24,0,.22,0,.12,0,.39,0,.6,0,.6,0,.41,0a.93.93,0,0,1,.55.45,1.32,1.32,0,0,1,.21.7s0,0,0,.08a.41.41,0,0,0,0,.11.68.68,0,0,0,0,.14.49.49,0,0,1-.11.13l-.21.2-.19.18a.38.38,0,0,0-.09.11.89.89,0,0,0-.11.31c0,.11,0,.22,0,.33v.7a.3.3,0,0,0,0,.11,14184797056093.15,14184797056093.15,0,0,1,.14.3.25.25,0,0,1,0,.09.5.5,0,0,1,0,.13l0,.2q0,.09,0,.27c.12.39.25.76.4,1.12a7.09,7.09,0,0,1,.36,1.13,5.36,5.36,0,0,1,.14.79,2.24,2.24,0,0,0,.2.8s0,0,.08.07l.12.15.13.16.06.09a.78.78,0,0,0,.08.16,1.45,1.45,0,0,1,.12.22c0,.08.08.15.11.22a.77.77,0,0,1,.06.15,1.16,1.16,0,0,0,0,.16c0,.08,0,.17.08.26s.06.18.08.27a1.13,1.13,0,0,0,.06.16l.07.12.11.19.12.21.07.13a1.57,1.57,0,0,1,.13.47,2,2,0,0,0,.12.47,1.33,1.33,0,0,0,.29.58,2,2,0,0,1,.31.53.71.71,0,0,1,.08.2.88.88,0,0,1,0,.19.88.88,0,0,0,.1.21l.16.34q.08.18.15.33a2.23,2.23,0,0,0,.09.22.74.74,0,0,1,0,.16c0,.09,0,.18,0,.28l0,.26c0,.09,0,.14,0,.16a.87.87,0,0,0,.1.2l.17.29.21.29a1.5,1.5,0,0,0,.16.2,1.3,1.3,0,0,0,.79.24.49.49,0,0,0,.38-.19,2.29,2.29,0,0,0,.3-.46,4.08,4.08,0,0,0,.22-.54l.14-.43a3.18,3.18,0,0,0,.16-.41c.07-.2.15-.42.24-.65l.26-.66.18-.46a1.34,1.34,0,0,1,.25-.43,1.7,1.7,0,0,0,.26-.45.77.77,0,0,0,.06-.24q0-.21,0-.24a1.7,1.7,0,0,0,0-.19c0-.1,0-.2.05-.3s0-.21,0-.31a1.36,1.36,0,0,0,0-.15s0-.07,0-.14l.09-.2a1.07,1.07,0,0,0,.09-.19.31.31,0,0,1,0-.09,4.78,4.78,0,0,0,.22-.84,7.71,7.71,0,0,0,0-.9v-.37a4.17,4.17,0,0,0,0-.52,2.29,2.29,0,0,0-.11-.49s-.06,0-.1-.12l-.12-.23c-.05-.08-.08-.16-.12-.22l-.07-.13a2,2,0,0,0,0-.21c0-.11,0-.23,0-.36s0-.25-.05-.35,0-.18,0-.21a1.07,1.07,0,0,0-.05-.16l-.09-.31a3.58,3.58,0,0,1-.11-.35l-.09-.28a.48.48,0,0,1-.08-.12l-.06-.09c0-.06-.09-.16-.18-.29s-.17-.28-.25-.43l-.25-.41a1.74,1.74,0,0,1-.15-.25.81.81,0,0,0-.41-.28,3.6,3.6,0,0,0-.63-.18l-.75-.13-.7-.14a1.92,1.92,0,0,1-.53-.18.36.36,0,0,1-.2-.31.54.54,0,0,1,0-.11.24.24,0,0,0,.06-.08.1.1,0,0,1,.05-.06,2,2,0,0,1,.69-.59,3,3,0,0,1,.82-.29,8.28,8.28,0,0,1,.89-.13q.45,0,.87-.09h.13l.21,0,.18,0,.1,0h.51l.24,0a.86.86,0,0,1,.26.1h1.13l1.82,0q.9,0,1.8.09A.4.4,0,0,1,167,28c0,.19,0,.34,0,.47v.16a.65.65,0,0,1-.29.32.94.94,0,0,1-.38.11,2.77,2.77,0,0,1-.42,0,1.87,1.87,0,0,0-.42,0l-.1,0-.14.06-.15.14a1.8,1.8,0,0,0-.19.2l-.17.18-.09.1a.59.59,0,0,0-.15.33c0,.12,0,.25,0,.38v.15a.21.21,0,0,0,.07.15,3.83,3.83,0,0,0,.11.44q.11.32.21.66c.08.23.15.45.22.67s.12.36.15.44a.8.8,0,0,0,.08.14l.13.22a1.5,1.5,0,0,1,.11.22.59.59,0,0,1,.05.14,2.33,2.33,0,0,1,.2.85c0,.27,0,.56,0,.87a1.13,1.13,0,0,0,.16.41,2.6,2.6,0,0,0,.25.33c.1.11.18.22.27.34a1.05,1.05,0,0,1,.17.39.48.48,0,0,1,0,.21c0,.12,0,.25,0,.39s0,.27.05.39a1.88,1.88,0,0,0,0,.23,1.65,1.65,0,0,0,0,.23,1,1,0,0,0,.08.26,1.58,1.58,0,0,0,.08.26c0,.12.08.25.14.4l.15.41a2.26,2.26,0,0,0,.12.31.24.24,0,0,0,0,.11.22.22,0,0,0,.09.1l.25.57c.11.26.24.52.37.79a7,7,0,0,0,.42.69q.21.3.39.3h.18l.21-.11.18-.11a1.1,1.1,0,0,0,.21-.14l.23-.14a.61.61,0,0,0,.06-.23c0-.13,0-.22,0-.26q.3-.8.54-1.62c.16-.55.32-1.1.47-1.65a5,5,0,0,1,.34-.88,3.22,3.22,0,0,0,.28-.88s0-.12,0-.25l0-.43c0-.14,0-.28,0-.42s0-.22,0-.26,0-.13.05-.29a2,2,0,0,0,0-.33,1.15,1.15,0,0,1,.17-.33l.24-.31a2.18,2.18,0,0,0,.22-.31.87.87,0,0,0,.13-.35v-.91c0-.11.09-.21.13-.28l.09-.2,0-.12a3.51,3.51,0,0,0,.12-.5,2.41,2.41,0,0,0,0-.5,1.21,1.21,0,0,0-.28-.91,1.8,1.8,0,0,0-.69-.39c-.27-.09-.56-.17-.85-.24a1.8,1.8,0,0,1-.78-.39l-.14-.13-.19-.18-.18-.19-.11-.12v-.12a.6.6,0,0,1,.2-.49,1.21,1.21,0,0,1,.46-.25,3.78,3.78,0,0,1,.57-.1h.49l.5,0,.78,0,.78,0a3.22,3.22,0,0,0,.5-.05l.2,0a.44.44,0,0,0,.17-.06.3.3,0,0,0,.13,0l.19-.08.19-.09a.24.24,0,0,1,.11,0,.43.43,0,0,1,.14,0l.23.09.23.08.13,0a3,3,0,0,0,.65.1h.65c.21,0,.43,0,.64,0a3.89,3.89,0,0,1,.65.12.66.66,0,0,1,.23.08.79.79,0,0,1,.27.16,3.28,3.28,0,0,0,.38.22.86.86,0,0,1,.35.26v.43a1.25,1.25,0,0,1-.16.69.91.91,0,0,1-.41.29,2.43,2.43,0,0,1-.58.09,3.26,3.26,0,0,0-.68.13l-.14,0-.24.11-.24.11-.15.07s-.07,0-.16.08l-.18.05a1,1,0,0,0-.4.38,3.63,3.63,0,0,0-.27.52c-.08.19-.16.38-.22.57s-.14.36-.21.51a1.63,1.63,0,0,0-.14.18l-.12.15a4.09,4.09,0,0,0-.31.75l-.24.77c-.08.26-.18.52-.28.77a3.16,3.16,0,0,1-.41.68q-.08.89-.18,1.62a7.52,7.52,0,0,1-.42,1.57,2.42,2.42,0,0,1-.25.51l-.27.46c-.09.15-.17.31-.25.47a2.66,2.66,0,0,0-.19.52.61.61,0,0,0,0,.27c0,.13,0,.25,0,.38s0,.21,0,.23a3,3,0,0,1-.23.54l-.32.57-.33.57a3.52,3.52,0,0,0-.25.53s0,.12-.07.21,0,.13-.09.13v.21l0,.36c0,.13,0,.24,0,.35a.78.78,0,0,1,0,.21l-.07.12a.4.4,0,0,0-.06.11,1.67,1.67,0,0,1-.07.2,1,1,0,0,0,0,.17.77.77,0,0,1,0,.19c0,.1-.05.21-.08.32l-.09.32a.64.64,0,0,1-.06.16,1.82,1.82,0,0,1-.09.24c0,.06-.07.13-.12.24s-.07.14-.11.24-.09.2-.14.29a2.11,2.11,0,0,1-.16.34s0,.1,0,.21,0,.22,0,.34,0,.23,0,.33,0,.18,0,.21l-.15.75a4.15,4.15,0,0,1-.25.85,2.34,2.34,0,0,1-.42.71.75.75,0,0,1-.62.29h-.45a.57.57,0,0,1-.22-.11l-.35-.35a1.42,1.42,0,0,1-.27-.29,1.12,1.12,0,0,1-.09-.19c0-.12-.1-.26-.16-.41l-.21-.47-.16-.38a3.9,3.9,0,0,1-.25-1.16,5.76,5.76,0,0,0-.19-1.19l-.36-1c-.11-.29-.25-.61-.42-1s-.26-.76-.37-1.15-.21-.79-.33-1.18-.23-.77-.37-1.15a6.05,6.05,0,0,0-.54-1.08.55.55,0,0,0-.14-.22.3.3,0,0,0-.19,0,.43.43,0,0,0-.22,0,.35.35,0,0,0-.15.22.64.64,0,0,0-.1.16l-.14.28c-.05.11-.11.21-.16.3s-.1.17-.13.22l-.07.23-.12.27a2.08,2.08,0,0,0-.1.24.59.59,0,0,0,0,.14.7.7,0,0,1,0,.14c0,.07,0,.15,0,.23a1.57,1.57,0,0,1,0,.23,1,1,0,0,0,0,.14l-.11.13-.19.22-.21.23-.13.13a2.3,2.3,0,0,0-.26.68,6.45,6.45,0,0,1-.2.68c-.11.3-.2.61-.29.94a6.31,6.31,0,0,1-.31.9,1.65,1.65,0,0,0-.07.16c0,.08-.07.17-.12.27s-.08.18-.11.27l-.07.17a5.93,5.93,0,0,0-.36,1.13q-.13.57-.3,1.11a6.12,6.12,0,0,1-.44,1.05,3,3,0,0,1-.74.9.88.88,0,0,0-.23.1l-.28.15h-.11a.26.26,0,0,1-.15-.07.24.24,0,0,0-.11-.06l-.18-.17-.24-.23-.21-.22a.62.62,0,0,1-.12-.12,1.33,1.33,0,0,0-.05-.19c0-.1-.08-.2-.12-.32l-.13-.3c0-.1,0-.15,0-.16-.2-.49-.41-1-.62-1.42s-.42-.93-.62-1.43a8.47,8.47,0,0,1-.32-1,9.7,9.7,0,0,0-.28-1c-.29-.78-.57-1.54-.81-2.3s-.52-1.5-.82-2.26a.54.54,0,0,0,0-.15c0-.08-.07-.16-.11-.25l-.11-.24-.07-.12a3.33,3.33,0,0,1-.14-.34l-.15-.4a.75.75,0,0,0,0-.16l-.06-.31c0-.11-.05-.22-.07-.31a.91.91,0,0,0-.06-.16,1.59,1.59,0,0,0-.11-.2l-.21-.32-.19-.31a.46.46,0,0,1-.09-.18.56.56,0,0,1-.09-.14.45.45,0,0,1,0-.11.48.48,0,0,1,0-.15c0-.09,0-.18,0-.28s0-.19,0-.27a.74.74,0,0,0,0-.16,9.84,9.84,0,0,0-.51-1.47,11.33,11.33,0,0,1-.55-1.47.48.48,0,0,1,0-.15c0-.07,0-.15,0-.24s0-.15,0-.23,0-.1,0-.1a.33.33,0,0,0-.05-.12,1.19,1.19,0,0,0-.08-.16c-.21-.41-.4-.78-.57-1.13A5.19,5.19,0,0,1,148.86,30.42Z"/><path d="M140.15,10.23l-.17,0a2.64,2.64,0,0,0-1,0,2.43,2.43,0,0,1-.9.08,12.65,12.65,0,0,0-1.63,0c-.87,0-1.64,0-2.5-.08a3.91,3.91,0,0,0-.75-.08,10.36,10.36,0,0,1-1.82-.1c-.26,0-.91.2-1,.47s0,.35,0,.51c-.09.37.31,1,.67,1s.76-.05,1.14-.06.8,0,1.2,0a7.65,7.65,0,0,1,.94-.15,8.43,8.43,0,0,1,1,0,8.2,8.2,0,0,0,1.57,0c1.07,0,2.16,0,3.23.07Z"/><path d="M152.12,11.84h0a4.24,4.24,0,0,0,.62,0h-.64Z"/><path d="M154.8,10.23l-.17,0-.52-.05a1.23,1.23,0,0,0-.33,0,2.44,2.44,0,0,1-.47,0h-.48a1.48,1.48,0,0,0-.29,0c-1.14,0-2.29,0-3.44.07a8,8,0,0,1-1.2,0c-.72,0-1.45,0-2.17-.07a4.32,4.32,0,0,1-1,0c-.2,0-.57-.07-.77-.07-.36,0-.54,0-.91.06-.8,0-1.61.05-2.41.06a2.48,2.48,0,0,1-.47,0L140,11l.15.87h.27c.74,0,1.49-.05,2.21-.06,2,0,4,0,6-.05.37,0,1.26,0,1.33,0a8.32,8.32,0,0,0,1.58,0H153c.59,0,1.18,0,1.77.05l.14-.92Z"/><path d="M166.77,11.84h0a4.19,4.19,0,0,0,.62,0h-.64Z"/><path d="M169.45,10.23l-.17,0-.53-.05a1.17,1.17,0,0,0-.32,0,2.44,2.44,0,0,1-.47,0h-.48a1.43,1.43,0,0,0-.29,0c-1.15,0-2.29,0-3.44.07a8.13,8.13,0,0,1-1.21,0c-.72,0-1.44,0-2.16-.07a4.4,4.4,0,0,1-1,0c-.19,0-.57-.07-.76-.07-.36,0-.55,0-.91.06-.8,0-1.61.05-2.41.06a2.48,2.48,0,0,1-.47,0l-.16.8.16.87h.27c.74,0,1.49-.05,2.21-.06,2,0,4,0,6-.05.37,0,1.26,0,1.33,0a8.23,8.23,0,0,0,1.57,0h1.47c.59,0,1.18,0,1.77.05l.13-.92Z"/><path d="M178.53,10a2.7,2.7,0,0,1-.48,0c-.16,0-.38.06-.54.07s-.58.08-.88.09c-.84,0-1.67,0-2.51,0h-2c-.22,0-.74,0-.79,0s-.55,0-.63,0l-.43.07c0,.56,0,1.09,0,1.65.56,0,1.12-.06,1.67-.07l4.1,0c.76,0,1.52.27,2.25.28a.91.91,0,0,0,.56-.15c.17-.11.22-.08.28-.16a.82.82,0,0,0,.09-.48C179.19,10.74,178.9,10,178.53,10Z"/><path d="M174,10.21c-.2,0-.57-.07-.77-.07-.36,0-.54,0-.9.06-.81,0-1.61.05-2.42.06a2.37,2.37,0,0,1-.46,0V11.9h.26c.74,0,1.5-.05,2.22-.06h2.46a3.7,3.7,0,0,1,.06-1.59A1.85,1.85,0,0,1,174,10.21Z"/><path d="M12.74,10.53l-.17,0a2.64,2.64,0,0,0-1,0,2.5,2.5,0,0,1-.91.08,12.51,12.51,0,0,0-1.62,0c-.87,0-1.64,0-2.5-.08a4,4,0,0,0-.75-.08A10.25,10.25,0,0,1,4,10.3c-.27,0-.91.2-1,.47s0,.35,0,.51c-.09.37.3,1,.66,1s.77,0,1.15-.06.8,0,1.19,0a7.91,7.91,0,0,1,.94-.14,8.43,8.43,0,0,1,1,0,9.14,9.14,0,0,0,1.57,0c1.08,0,2.16,0,3.24.06Z"/><path d="M24.71,12.14h0a4.33,4.33,0,0,0,.63,0h-.64Z"/><path d="M27.39,10.53l-.17,0-.53,0a1.71,1.71,0,0,0-.32,0,1.83,1.83,0,0,1-.47,0h-.48a1,1,0,0,0-.29,0c-1.15,0-2.3,0-3.44.07a8.13,8.13,0,0,1-1.21,0c-.72-.06-1.44-.05-2.16-.07a5,5,0,0,1-1,0c-.2,0-.57-.08-.76-.07-.37,0-.55,0-.91.06-.8,0-1.61.05-2.42.06a3.55,3.55,0,0,1-.46,0l-.16.8.16.86H13c.74,0,1.49,0,2.21-.06,2,0,4,0,6-.06.37,0,1.26,0,1.33,0a9.14,9.14,0,0,0,1.57,0h1.47l1.77,0,.13-.91Z"/><path d="M39.36,12.14h0a4.24,4.24,0,0,0,.62,0h-.63Z"/><path d="M42,10.53l-.17,0-.52,0a1.71,1.71,0,0,0-.32,0,1.91,1.91,0,0,1-.48,0h-.47a1,1,0,0,0-.29,0c-1.15,0-2.3,0-3.45.07a8,8,0,0,1-1.2,0c-.72-.06-1.45-.05-2.17-.07a4.93,4.93,0,0,1-1,0c-.2,0-.57-.08-.77-.07-.36,0-.54,0-.9.06-.81,0-1.61.05-2.42.06a3.55,3.55,0,0,1-.46,0l-.16.8.16.86h.26c.74,0,1.49,0,2.22-.06,2,0,4,0,6-.06.36,0,1.26,0,1.33,0a9.11,9.11,0,0,0,1.57,0h1.46l1.77,0,.14-.91Z"/><path d="M51.11,10.31c-.19,0-.27,0-.47,0s-.39.06-.54.07c-.3,0-.59.08-.89.09-.83,0-1.67,0-2.5,0l-.83,0H44.66c-.21,0-.74,0-.78,0s-.56,0-.64,0l-.42.07c0,.56,0,1.08,0,1.65.56,0,1.13-.06,1.67-.07l4.11,0c.76,0,1.52.27,2.25.28a1.09,1.09,0,0,0,.56-.15c.16-.11.22-.08.28-.17a.77.77,0,0,0,.09-.47C51.77,11,51.48,10.27,51.11,10.31Z"/><path d="M46.59,10.51c-.2,0-.58-.08-.77-.07-.36,0-.54,0-.91.06-.8,0-1.61.05-2.41.06a3.71,3.71,0,0,1-.47,0v1.66h.27c.74,0,1.49,0,2.21-.06H47A3.7,3.7,0,0,1,47,10.54,2.43,2.43,0,0,1,46.59,10.51Z"/></g></g></svg>